<svg width="92" height="45" viewBox="0 0 92 45" fill="none" xmlns="http://www.w3.org/2000/svg">
<g id="Group 48095604">
<g id="HIRE CODER">
<path d="M17.1365 20.5893V0H20.0694V8.57887H32.1922V0H35.1252V20.5893H32.1922V12.0104H20.0694V20.5893H17.1365Z" fill="#14A800"/>
<path d="M36.3359 20.5893V0H39.2444V20.5893H36.3359Z" fill="#14A800"/>
<path d="M22.4924 44.0664C21.8896 44.0664 21.3355 43.8948 20.8304 43.5517C20.3253 43.2085 19.9261 42.7414 19.6328 42.1504C19.3395 41.5595 19.1929 40.9113 19.1929 40.2059V27.3376C19.1929 26.6322 19.3395 25.984 19.6328 25.393C19.9261 24.8021 20.3253 24.335 20.8304 23.9918C21.3355 23.6487 21.8896 23.4771 22.4924 23.4771H33.4909C34.0938 23.4771 34.6397 23.6487 35.1285 23.9918C35.6336 24.335 36.0328 24.8021 36.3261 25.393C36.6357 25.984 36.7905 26.6322 36.7905 27.3376V40.2059C36.7905 40.9113 36.6357 41.5595 36.3261 42.1504C36.0328 42.7414 35.6336 43.2085 35.1285 43.5517C34.6397 43.8948 34.0938 44.0664 33.4909 44.0664H22.4924ZM22.5658 40.6063H33.3932C33.5072 40.6063 33.605 40.5586 33.6865 40.4633C33.7842 40.368 33.8331 40.244 33.8331 40.0915V27.452C33.8331 27.2995 33.7842 27.1755 33.6865 27.0802C33.605 26.9849 33.5072 26.9372 33.3932 26.9372H22.5658C22.4517 26.9372 22.3458 26.9849 22.248 27.0802C22.1666 27.1755 22.1258 27.2995 22.1258 27.452V40.0915C22.1258 40.244 22.1666 40.368 22.248 40.4633C22.3458 40.5586 22.4517 40.6063 22.5658 40.6063Z" fill="#14A800"/>
<path d="M37.9702 44.0664V23.4771H52.2682C52.8711 23.4771 53.417 23.6487 53.9058 23.9918C54.4109 24.335 54.8101 24.8021 55.1034 25.393C55.413 25.984 55.5678 26.6322 55.5678 27.3376V40.2059C55.5678 40.9113 55.413 41.5595 55.1034 42.1504C54.8101 42.7414 54.4109 43.2085 53.9058 43.5517C53.417 43.8948 52.8711 44.0664 52.2682 44.0664H37.9702ZM41.3431 40.6063H52.1705C52.2845 40.6063 52.3823 40.5586 52.4638 40.4633C52.5615 40.368 52.6104 40.244 52.6104 40.0915V27.452C52.6104 27.2995 52.5615 27.1755 52.4638 27.0802C52.3823 26.9849 52.2845 26.9372 52.1705 26.9372H41.3431C41.2127 26.9372 41.0986 26.9849 41.0009 27.0802C40.9194 27.1755 40.8787 27.2995 40.8787 27.452V40.0915C40.8787 40.244 40.9194 40.368 41.0009 40.4633C41.0986 40.5586 41.2127 40.6063 41.3431 40.6063Z" fill="#14A800"/>
<path fill-rule="evenodd" clip-rule="evenodd" d="M56.9058 44.0378V40.5777H59.8631H73.0613V44.0378H56.9058ZM59.8631 35.4589H73.0613V32.0274H59.8631H56.9058V32.1114V35.4589H59.8631ZM73.0613 26.9087H59.8631H56.9058V23.4485H73.0613V26.9087Z" fill="#14A800"/>
<path fill-rule="evenodd" clip-rule="evenodd" d="M60.7973 20.5893V17.1291H63.7547H76.9529V20.5893H60.7973ZM76.9529 12.0104H63.7547H60.7973V8.57887H63.7547H76.9529V12.0104ZM63.7547 3.46014H76.9529V0H60.7973V3.46014H63.7547Z" fill="#14A800"/>
<path fill-rule="evenodd" clip-rule="evenodd" d="M83.0335 36.8733L88.1801 44.0664H91.4796V43.2657L86.8657 36.8636L88.2534 36.8602C88.8562 36.8602 89.4021 36.6886 89.8909 36.3454C90.396 36.0023 90.7952 35.5352 91.0885 34.9442C91.3981 34.3532 91.5529 33.7146 91.5529 33.0283V27.3662C91.5529 26.6608 91.3981 26.0222 91.0885 25.4502C90.7952 24.8593 90.396 24.3922 89.8909 24.049C89.4021 23.6868 88.8562 23.5057 88.2534 23.5057H73.9553V26.9373H77.3282H88.1556C88.2697 26.9373 88.3674 26.9944 88.4489 27.1088C88.5467 27.2042 88.5955 27.3185 88.5955 27.452V32.8853C88.5955 33.0378 88.5467 33.1617 88.4489 33.257C88.3674 33.3523 88.2697 33.4 88.1556 33.4H77.3282H73.9553V44.0664H76.8882V36.8887L83.0335 36.8733Z" fill="#14A800"/>
<path fill-rule="evenodd" clip-rule="evenodd" d="M49.7405 13.3963L54.887 20.5895H58.1866V19.7888L53.5726 13.3867L54.9603 13.3832C55.5632 13.3832 56.1091 13.2116 56.5979 12.8685C57.103 12.5253 57.5022 12.0583 57.7955 11.4673C58.1051 10.8763 58.2599 10.2376 58.2599 9.55132V3.88926C58.2599 3.18388 58.1051 2.54523 57.7955 1.97331C57.5022 1.38232 57.103 0.915247 56.5979 0.572092C56.1091 0.209873 55.5632 0.0287622 54.9603 0.0287622H40.6623V3.46031H44.0352H54.8626C54.9766 3.46031 55.0744 3.51751 55.1559 3.63189C55.2536 3.72721 55.3025 3.84159 55.3025 3.97504V9.40833C55.3025 9.56085 55.2536 9.68476 55.1559 9.78008C55.0744 9.8754 54.9766 9.92306 54.8626 9.92306H44.0352H40.6623V20.5895H43.5952V13.4118L49.7405 13.3963Z" fill="#14A800"/>
</g>
<g id="HIRE CODER_2">
<path d="M3.44652 44.1967C2.84364 44.1967 2.28965 44.0251 1.78453 43.682C1.27941 43.3388 0.880205 42.8718 0.586911 42.2808C0.293617 41.6898 0.146973 41.0416 0.146973 40.3362V27.4679C0.146973 26.7625 0.293617 26.1144 0.586911 25.5234C0.880205 24.9324 1.27941 24.4653 1.78453 24.1222C2.28965 23.779 2.84364 23.6074 3.44652 23.6074H17.6957V27.0676H3.95979C3.69908 27.0676 3.48726 27.1629 3.32432 27.3535C3.16138 27.5251 3.07991 27.7634 3.07991 28.0684V39.7357C3.07991 40.0407 3.16138 40.2886 3.32432 40.4792C3.48726 40.6508 3.69908 40.7366 3.95979 40.7366H17.6957V44.1967H3.44652Z" fill="black"/>
<path d="M3.44652 44.1967C2.84364 44.1967 2.28965 44.0251 1.78453 43.682C1.27941 43.3388 0.880205 42.8718 0.586911 42.2808C0.293617 41.6898 0.146973 41.0416 0.146973 40.3362V27.4679C0.146973 26.7625 0.293617 26.1144 0.586911 25.5234C0.880205 24.9324 1.27941 24.4653 1.78453 24.1222C2.28965 23.779 2.84364 23.6074 3.44652 23.6074H17.6957V27.0676H3.95979C3.69908 27.0676 3.48726 27.1629 3.32432 27.3535C3.16138 27.5251 3.07991 27.7634 3.07991 28.0684V39.7357C3.07991 40.0407 3.16138 40.2886 3.32432 40.4792C3.48726 40.6508 3.69908 40.7366 3.95979 40.7366H17.6957V44.1967H3.44652Z" fill="black" fill-opacity="0.2"/>
<path d="M3.44652 44.1967C2.84364 44.1967 2.28965 44.0251 1.78453 43.682C1.27941 43.3388 0.880205 42.8718 0.586911 42.2808C0.293617 41.6898 0.146973 41.0416 0.146973 40.3362V27.4679C0.146973 26.7625 0.293617 26.1144 0.586911 25.5234C0.880205 24.9324 1.27941 24.4653 1.78453 24.1222C2.28965 23.779 2.84364 23.6074 3.44652 23.6074H17.6957V27.0676H3.95979C3.69908 27.0676 3.48726 27.1629 3.32432 27.3535C3.16138 27.5251 3.07991 27.7634 3.07991 28.0684V39.7357C3.07991 40.0407 3.16138 40.2886 3.32432 40.4792C3.48726 40.6508 3.69908 40.7366 3.95979 40.7366H17.6957V44.1967H3.44652Z" fill="black"/>
<path d="M3.44652 44.1967C2.84364 44.1967 2.28965 44.0251 1.78453 43.682C1.27941 43.3388 0.880205 42.8718 0.586911 42.2808C0.293617 41.6898 0.146973 41.0416 0.146973 40.3362V27.4679C0.146973 26.7625 0.293617 26.1144 0.586911 25.5234C0.880205 24.9324 1.27941 24.4653 1.78453 24.1222C2.28965 23.779 2.84364 23.6074 3.44652 23.6074H17.6957V27.0676H3.95979C3.69908 27.0676 3.48726 27.1629 3.32432 27.3535C3.16138 27.5251 3.07991 27.7634 3.07991 28.0684V39.7357C3.07991 40.0407 3.16138 40.2886 3.32432 40.4792C3.48726 40.6508 3.69908 40.7366 3.95979 40.7366H17.6957V44.1967H3.44652Z" fill="black" fill-opacity="0.2"/>
</g>
</g>
</svg>
