<svg width="60" height="61" viewBox="0 0 60 61" fill="none" xmlns="http://www.w3.org/2000/svg">
<rect y="0.5" width="60" height="60" rx="30" fill="#14A800" fill-opacity="0.1"/>
<path d="M28.2422 13.0985C25.9008 13.5133 23.9039 14.5399 22.2797 16.1641C20.775 17.6688 19.7695 19.5039 19.2914 21.6344C19.1578 22.225 19.1367 22.5274 19.1367 23.8985C19.1367 25.2696 19.1578 25.5719 19.2914 26.1625C19.5234 27.175 19.7625 27.843 20.2266 28.7852C21.2883 30.9156 22.9898 32.6172 25.1133 33.6649C26.0273 34.1149 26.9414 34.4383 27.8906 34.6352C28.8187 34.8321 31.3359 34.811 32.2641 34.6071C33.2695 34.375 33.9445 34.136 34.8867 33.6719C37.8609 32.1953 39.9633 29.4813 40.7086 26.1625C40.8422 25.5719 40.8633 25.2696 40.8633 23.8985C40.8633 22.5274 40.8422 22.225 40.7086 21.6344C40.4836 20.643 40.2445 19.968 39.7664 19.0117C38.3109 16.0586 35.5828 13.9352 32.2992 13.2039C31.4695 13.0141 29.0648 12.9578 28.2422 13.0985ZM31.0547 18.0555V18.7516L31.4555 18.8781C32.5734 19.2297 33.4453 20.2703 33.6141 21.4516L33.6633 21.7891H32.6437H31.6312L31.582 21.5781C31.5258 21.311 31.3078 21.0438 31.0336 20.8891C30.8578 20.7977 30.6328 20.7696 29.9648 20.7696C29.0016 20.7696 28.7836 20.8469 28.5305 21.2969C28.2633 21.775 28.3687 22.2883 28.8047 22.661C29.0086 22.8297 29.0789 22.8438 29.7047 22.8438C30.0773 22.8438 30.6258 22.8789 30.907 22.9141C33.1852 23.2094 34.3875 25.7196 33.1641 27.625C32.7633 28.2508 32.0602 28.7641 31.35 28.9539L31.0547 29.0383V29.7344V30.4375H30.0352H29.0227L29.0016 29.7555L28.9805 29.0735L28.5586 28.9258C27.9891 28.7289 27.7219 28.5813 27.3914 28.2789C26.857 27.7938 26.4844 27.1047 26.3859 26.4086L26.3367 26.0781H27.3422H28.3477L28.4742 26.3946C28.5656 26.5985 28.6922 26.7602 28.8609 26.8656C29.093 27.0133 29.2055 27.0274 30 27.0274C31.0055 27.0274 31.2164 26.95 31.4695 26.5C31.7367 26.0219 31.6312 25.5086 31.1953 25.136C30.9914 24.9672 30.9211 24.9531 30.2953 24.9531C28.8258 24.9461 28.0523 24.7211 27.3633 24.0953C26.0203 22.8719 26.0133 20.7766 27.3633 19.5602C27.757 19.2016 28.2141 18.9485 28.6922 18.8289L29.0156 18.7516V18.0555V17.3594H30.0352H31.0547V18.0555Z" fill="#14A800"/>
<path d="M21.4922 36.0625V38.3828H20.4375H19.3828V39.3813V40.3867L21.9984 43.0023C23.4398 44.4438 24.6492 45.625 24.6914 45.625C24.7336 45.625 25.943 44.4438 27.3844 43.0023L30 40.3867V39.3813V38.3828H28.9453H27.8906V37.5461V36.7023L27.4898 36.625C26.8289 36.4914 25.8797 36.2172 25.3031 35.9852C24.15 35.5281 22.7227 34.6984 21.907 34.0164C21.7242 33.8617 21.5555 33.7422 21.5344 33.7422C21.5133 33.7422 21.4922 34.7828 21.4922 36.0625Z" fill="#14A800"/>
<path d="M38.2898 33.8547C38.2336 33.925 37.868 34.2063 37.4672 34.4875C36.0328 35.507 34.2117 36.2945 32.5172 36.625L32.1094 36.7023V39.2336V41.7578H31.0547H30V42.7633V43.7617L32.6227 46.3844C34.057 47.8188 35.2734 49 35.3086 49C35.3508 49 36.5602 47.8188 38.0016 46.3773L40.6172 43.7617V42.7563V41.7578H39.5625H38.5078V37.75C38.5078 35.5 38.4797 33.7422 38.4445 33.7422C38.4094 33.7422 38.3391 33.7914 38.2898 33.8547Z" fill="#14A800"/>
</svg>
