<svg width="74" height="47" viewBox="0 0 74 47" fill="none" xmlns="http://www.w3.org/2000/svg">
<path d="M8.34912 13.2413C8.34912 13.5713 8.56204 13.8413 8.80537 13.8413C9.17037 13.8413 9.26162 14.2313 9.26162 15.6413V17.4413H10.1741H11.0866V15.6413C11.0866 14.2313 11.1779 13.8413 11.5429 13.8413C11.7862 13.8413 11.9991 13.5713 11.9991 13.2413C11.9991 12.7013 11.7862 12.6413 10.1741 12.6413C8.56204 12.6413 8.34912 12.7013 8.34912 13.2413Z" fill="#4D4D4F"/>
<path d="M12.3032 15.0413C12.3032 17.4113 12.3032 17.4413 13.0636 17.4413C13.7024 17.4413 13.8241 17.2913 13.8241 16.5413C13.8241 15.7913 13.9457 15.6413 14.5845 15.6413C15.2232 15.6413 15.3449 15.7913 15.3449 16.5413C15.3449 17.2913 15.4666 17.4413 16.1053 17.4413C16.8657 17.4413 16.8657 17.4113 16.8657 15.0413C16.8657 12.6713 16.8657 12.6413 16.1053 12.6413C15.4666 12.6413 15.3449 12.7913 15.3449 13.5413C15.3449 14.2913 15.2232 14.4413 14.5845 14.4413C13.9457 14.4413 13.8241 14.2913 13.8241 13.5413C13.8241 12.7913 13.7024 12.6413 13.0636 12.6413C12.3032 12.6413 12.3032 12.6713 12.3032 15.0413Z" fill="#4D4D4F"/>
<path d="M17.7783 15.0413V17.4413H19.2992C20.6071 17.4413 20.82 17.3513 20.82 16.8413C20.82 16.3613 20.6071 16.2413 19.8467 16.2113C18.9037 16.1513 18.9037 16.1513 19.6946 16.0313C20.3333 15.9413 20.5158 15.7313 20.5158 15.1613C20.5158 14.5913 20.3637 14.4413 19.7554 14.4413C19.3296 14.4413 18.995 14.2913 18.995 14.1413C18.995 13.9613 19.4208 13.8413 19.9075 13.8413C20.6071 13.8413 20.82 13.7213 20.82 13.2413C20.82 12.7313 20.6071 12.6413 19.2992 12.6413H17.7783V15.0413Z" fill="#4D4D4F"/>
<path d="M19.8467 19.5412C16.4097 21.3412 16.1663 26.5012 19.4513 28.3912C21.2763 29.4712 24.0138 29.4412 25.6867 28.3612C27.4205 27.2212 27.9072 26.2912 27.9376 24.1612C27.968 22.5112 27.8463 22.1512 27.0251 21.1312C26.508 20.5012 25.6259 19.7512 25.048 19.4812C23.6488 18.7912 21.2459 18.8212 19.8467 19.5412Z" fill="#4D4D4F"/>
<path d="M57.0462 19.5712C55.5254 20.4712 55.282 20.8012 54.7954 22.4512C54.4304 23.6212 54.4 24.3112 54.6129 25.2712C55.2516 28.0012 56.7116 29.1412 59.6925 29.1412C61.335 29.1412 61.8216 29.0212 62.795 28.3012C64.1333 27.3712 64.4983 26.7712 64.772 24.8212L64.985 23.4412H62.3691H59.7533V24.4912C59.7533 25.4512 59.8141 25.5412 60.6658 25.5412C61.7 25.5412 61.6391 26.1412 60.5441 26.7412C59.0537 27.5212 57.32 26.1712 57.32 24.2212C57.3504 22.9012 57.7154 22.2412 58.7495 21.7012C59.7533 21.1612 60.3008 21.2512 61.1829 22.1212C61.8216 22.7512 62.0954 22.8412 62.6125 22.6012C62.9775 22.4212 63.4945 22.2112 63.7987 22.1212C64.0725 22.0312 64.3158 21.8212 64.3158 21.6712C64.3158 21.2212 62.7037 19.7212 61.7912 19.3012C60.4529 18.7312 58.2325 18.8512 57.0462 19.5712Z" fill="#4D4D4F"/>
<path d="M8.65332 24.1612V29.1412H11.0867C14.9192 29.1412 16.2575 28.3312 16.2575 26.0212C16.2575 25.2712 16.0446 24.7612 15.4667 24.2512C14.9496 23.7712 14.7975 23.4412 15.0104 23.3212C15.1929 23.2012 15.345 22.5412 15.345 21.8212C15.345 19.8412 14.6758 19.4212 11.3604 19.3012L8.65332 19.1812V24.1612ZM12.6075 21.7912C13.0637 22.3312 12.7596 22.8412 11.9687 22.8412C11.5429 22.8412 11.3908 22.6312 11.3908 22.0912C11.3908 21.2512 12.0296 21.1012 12.6075 21.7912ZM12.9421 25.2412C13.52 25.5712 13.7329 26.2912 13.3071 26.5312C13.155 26.5912 12.6987 26.7412 12.2425 26.8612C11.4212 27.0412 11.3908 27.0112 11.3908 25.9912C11.3908 24.8812 11.8167 24.6712 12.9421 25.2412Z" fill="#4D4D4F"/>
<path d="M29.3364 24.1612V29.1412H30.7052H32.0435L32.1348 27.4312L32.226 25.6912L33.2906 27.4312L34.3248 29.1412H35.9368C37.7923 29.1412 37.9139 28.9012 36.7277 27.4912C34.6593 25.1212 34.5681 24.9412 35.146 24.9412C35.8152 24.9412 36.4235 23.9212 36.5756 22.5712C36.6668 21.3712 36.5756 21.0112 35.9368 20.2612C35.2068 19.4212 35.0548 19.3912 32.2564 19.3012L29.3364 19.1812V24.1612ZM33.4123 21.8212C33.686 22.0612 33.8989 22.3912 33.8989 22.5112C33.8989 22.9012 33.1689 23.4412 32.6214 23.4412C32.1956 23.4412 32.0739 23.2012 32.0739 22.3912C32.0739 21.2212 32.591 21.0112 33.4123 21.8212Z" fill="#4D4D4F"/>
<path d="M38.4614 24.1912V29.1412H39.8302H41.1989V24.1912V19.2412H39.8302H38.4614V24.1912Z" fill="#4D4D4F"/>
<path d="M43.0239 24.1912V29.1412H44.3927H45.7614V26.3812V23.5912L46.461 24.3412C46.826 24.7612 47.5256 25.6312 48.0427 26.2912C48.5293 26.9512 49.1681 27.7612 49.4723 28.0612C49.7764 28.3912 50.0198 28.7512 50.0198 28.9012C50.0198 29.0212 50.7193 29.1412 51.5406 29.1412H53.0614V24.1912V19.2412H51.6927H50.3239V22.1512C50.3239 24.9712 50.2935 25.0612 49.8068 24.3412C49.5331 23.9212 48.9552 23.1712 48.5293 22.6612C48.1035 22.1512 47.2823 21.1612 46.7348 20.4712C45.7918 19.3612 45.5789 19.2412 44.3623 19.2412H43.0239V24.1912Z" fill="#4D4D4F"/>
<path d="M29.2759 31.1212C27.603 31.9912 27.2989 33.9412 28.6372 35.2612C29.2759 35.8912 29.7018 36.0412 30.523 35.9812C31.4355 35.8912 31.618 35.7712 31.7093 35.1112C31.8005 34.4212 31.7093 34.3312 31.0097 34.4512C29.4889 34.7512 28.6068 32.9212 30.0972 32.5612C30.523 32.4712 31.0705 32.4412 31.3139 32.5612C31.6484 32.6812 31.7701 32.5012 31.7701 31.8712C31.7701 30.6112 30.7664 30.3112 29.2759 31.1212Z" fill="#4D4D4F"/>
<path d="M33.6255 31.0613C32.8042 31.5113 32.1046 32.6213 32.0742 33.4613C32.0742 33.7913 32.4088 34.4813 32.8651 35.0513C33.5038 35.8913 33.808 36.0413 34.903 36.0413C36.728 36.0113 37.7013 35.1413 37.7013 33.5213C37.7013 32.2313 37.3363 31.6313 36.1196 31.0013C35.268 30.5513 34.538 30.5513 33.6255 31.0613ZM36.0588 32.9213C36.9105 33.9413 35.0246 35.0813 34.0513 34.1213C33.5038 33.5813 33.4734 33.2813 33.9601 32.8013C34.4771 32.2913 35.5721 32.3513 36.0588 32.9213Z" fill="#4D4D4F"/>
<path d="M38.9481 31.2113C38.796 31.4213 38.1876 35.1113 38.1572 35.8013C38.1572 35.9513 38.4918 36.0413 38.9176 36.0413C39.5564 36.0413 39.6781 35.8913 39.6781 35.2013C39.6781 33.9113 40.0735 33.7613 40.4689 34.9013C40.9556 36.3413 41.5943 36.2813 42.1722 34.7813L42.6893 33.4913V34.7513C42.7197 35.9813 42.7501 36.0413 43.6322 36.0413C44.6664 36.0413 44.636 36.1313 44.271 34.4513C44.0885 33.7613 43.8756 32.6813 43.7843 32.0513C43.6018 31.0313 43.5106 30.9113 42.7806 31.0013C42.2331 31.0613 41.9289 31.3013 41.8681 31.6913C41.6551 32.8013 41.1989 32.8913 40.8339 31.9013C40.5601 31.2113 40.256 30.9413 39.7693 30.9413C39.4043 30.9413 39.0393 31.0613 38.9481 31.2113Z" fill="#4D4D4F"/>
<path d="M45.1533 33.4913C45.1533 36.0113 45.1533 36.0413 45.9137 36.0413C46.4917 36.0413 46.6742 35.8913 46.6742 35.3513C46.6742 34.8413 46.9479 34.5713 47.7387 34.2713C48.7121 33.9413 48.8033 33.7913 48.8033 32.7413C48.8033 31.3613 48.2558 30.9413 46.4004 30.9413H45.1533V33.4913Z" fill="#4D4D4F"/>
<path d="M50.172 31.7513C50.0808 32.2013 49.7158 33.1013 49.3812 33.7613C48.5904 35.4113 48.6208 36.0413 49.5637 36.0413C50.0504 36.0413 50.3241 35.8613 50.3241 35.5913C50.3241 35.2913 50.6283 35.1413 51.2366 35.1413C51.8449 35.1413 52.1491 35.2913 52.1491 35.5913C52.1491 35.8613 52.4229 36.0413 52.9095 36.0413C53.8524 36.0413 53.9133 35.3513 53.092 33.5513C52.7574 32.8613 52.4229 31.9913 52.3012 31.6013C51.997 30.5813 50.4458 30.6713 50.172 31.7513Z" fill="#4D4D4F"/>
<path d="M54.2783 33.4913C54.2783 36.0113 54.2783 36.0413 55.0387 36.0413C55.7383 36.0413 55.7992 35.9213 55.7992 34.7513V33.4913L56.7117 34.5413C57.1983 35.1113 57.6242 35.6813 57.6242 35.8013C57.6242 35.9513 57.9587 36.0413 58.3846 36.0413C59.145 36.0413 59.145 36.0113 59.145 33.4913C59.145 31.1513 59.0842 30.9413 58.5367 30.9413C58.0196 30.9413 57.9283 31.1513 57.9283 32.1413C57.9283 32.8013 57.8371 33.3413 57.7154 33.3413C57.5633 33.3413 57.0767 32.8013 56.6204 32.1413C56.0121 31.3013 55.5254 30.9413 55.0083 30.9413C54.2783 30.9413 54.2783 31.0013 54.2783 33.4913Z" fill="#4D4D4F"/>
<path d="M59.7534 31.3613C59.7534 31.6013 60.088 32.2013 60.5138 32.6813C61.0613 33.3113 61.2743 33.9413 61.2743 34.8113C61.2743 35.9213 61.3351 36.0413 62.0347 36.0413C62.7343 36.0413 62.7951 35.9213 62.7951 34.7513C62.7951 33.7913 63.0384 33.1613 63.738 32.2013L64.6809 30.9413H63.8293C63.373 30.9413 62.7647 31.1513 62.4909 31.3913C62.0347 31.8113 61.9434 31.8113 61.5784 31.3913C61.0918 30.8213 59.7534 30.7913 59.7534 31.3613Z" fill="#4D4D4F"/>
</svg>
