<svg width="55" height="55" viewBox="0 0 55 55" fill="none" xmlns="http://www.w3.org/2000/svg">
<path d="M24.0625 17.1875H20.625V37.8125H24.0625V17.1875ZM34.375 17.1875H30.9375V37.8125H34.375V17.1875Z" fill="#F6F6F6"/>
<path d="M27.5 6.875C31.5793 6.875 35.5669 8.08464 38.9586 10.3509C42.3504 12.6172 44.994 15.8384 46.555 19.6072C48.1161 23.3759 48.5245 27.5229 47.7287 31.5237C46.9329 35.5246 44.9685 39.1996 42.0841 42.0841C39.1996 44.9685 35.5246 46.9329 31.5237 47.7287C27.5229 48.5245 23.3759 48.1161 19.6072 46.555C15.8384 44.994 12.6173 42.3504 10.3509 38.9586C8.08465 35.5669 6.87501 31.5792 6.87501 27.5C6.87501 22.0299 9.048 16.7839 12.9159 12.9159C16.7839 9.04798 22.0299 6.875 27.5 6.875ZM27.5 3.4375C22.7409 3.4375 18.0887 4.84874 14.1316 7.49276C10.1745 10.1368 7.09039 13.8948 5.26916 18.2917C3.44793 22.6885 2.97141 27.5267 3.89986 32.1944C4.82832 36.862 7.12005 41.1496 10.4853 44.5148C13.8505 47.88 18.138 50.1717 22.8057 51.1001C27.4733 52.0286 32.3115 51.5521 36.7083 49.7309C41.1052 47.9096 44.8632 44.8255 47.5072 40.8684C50.1513 36.9114 51.5625 32.2591 51.5625 27.5C51.5625 21.1182 49.0274 14.9978 44.5148 10.4852C40.0022 5.97265 33.8818 3.4375 27.5 3.4375Z" fill="#F6F6F6"/>
</svg>
