<svg width="538" height="119" viewBox="0 0 538 119" fill="none" xmlns="http://www.w3.org/2000/svg">
<path d="M4.02148 69.7335V0.771729H13.845V29.5058H54.4492V0.771729H64.2727V69.7335H54.4492V40.9994H13.845V69.7335H4.02148Z" fill="white"/>
<path d="M68.3279 69.7335V0.771729H78.0697V69.7335H68.3279Z" fill="white"/>
<path d="M244.505 69.7338C242.486 69.7338 240.63 69.1592 238.939 68.0098C237.247 66.8604 235.91 65.296 234.927 63.3166C233.945 61.3371 233.454 59.1661 233.454 56.8035V13.7025C233.454 11.3399 233.945 9.16887 234.927 7.18942C235.91 5.20996 237.247 3.64554 238.939 2.49618C240.63 1.34682 242.486 0.772158 244.505 0.772158H292.231V12.3615H246.224C245.351 12.3615 244.642 12.6808 244.096 13.3194C243.55 13.894 243.277 14.6922 243.277 15.7139V54.7921C243.277 55.8138 243.55 56.6439 244.096 57.2824C244.642 57.8571 245.351 58.1444 246.224 58.1444H292.231V69.7338H244.505Z" fill="white"/>
<path d="M306.589 69.8296C304.57 69.8296 302.714 69.2549 301.022 68.1056C299.33 66.9562 297.993 65.3918 297.011 63.4123C296.029 61.4329 295.537 59.2619 295.537 56.8993V13.7982C295.537 11.4357 296.029 9.26465 297.011 7.2852C297.993 5.30574 299.33 3.74132 301.022 2.59196C302.714 1.4426 304.57 0.867926 306.589 0.867926H343.427C345.447 0.867926 347.275 1.4426 348.912 2.59196C350.604 3.74132 351.941 5.30574 352.923 7.2852C353.96 9.26465 354.479 11.4357 354.479 13.7982V56.8993C354.479 59.2619 353.96 61.4329 352.923 63.4123C351.941 65.3918 350.604 66.9562 348.912 68.1056C347.275 69.2549 345.447 69.8296 343.427 69.8296H306.589ZM306.834 58.2402H343.1C343.482 58.2402 343.809 58.0806 344.082 57.7613C344.41 57.4421 344.573 57.027 344.573 56.5162V14.1814C344.573 13.6705 344.41 13.2555 344.082 12.9362C343.809 12.6169 343.482 12.4573 343.1 12.4573H306.834C306.452 12.4573 306.098 12.6169 305.77 12.9362C305.497 13.2555 305.361 13.6705 305.361 14.1814V56.5162C305.361 57.027 305.497 57.4421 305.77 57.7613C306.098 58.0806 306.452 58.2402 306.834 58.2402Z" fill="white"/>
<path d="M358.43 69.8296V0.867926H406.32C408.339 0.867926 410.167 1.4426 411.805 2.59196C413.497 3.74132 414.834 5.30574 415.816 7.2852C416.853 9.26465 417.371 11.4357 417.371 13.7982V56.8993C417.371 59.2619 416.853 61.4329 415.816 63.4123C414.834 65.3918 413.497 66.9562 411.805 68.1056C410.167 69.2549 408.339 69.8296 406.32 69.8296H358.43ZM369.727 58.2402H405.992C406.374 58.2402 406.702 58.0806 406.975 57.7613C407.302 57.4421 407.466 57.027 407.466 56.5162V14.1814C407.466 13.6705 407.302 13.2555 406.975 12.9362C406.702 12.6169 406.374 12.4573 405.992 12.4573H369.727C369.29 12.4573 368.908 12.6169 368.581 12.9362C368.308 13.2555 368.172 13.6705 368.172 14.1814V56.5162C368.172 57.027 368.308 57.4421 368.581 57.7613C368.908 58.0806 369.29 58.2402 369.727 58.2402Z" fill="white"/>
<path fill-rule="evenodd" clip-rule="evenodd" d="M421.853 69.7338V58.1445H431.758H475.964V69.7338H421.853ZM431.758 40.9998H475.964V29.5062H431.758H421.853V29.7875V40.9998H431.758ZM475.964 12.3616H431.758H421.853V0.772158H475.964V12.3616Z" fill="white"/>
<path fill-rule="evenodd" clip-rule="evenodd" d="M146.015 69.7335V58.1441H155.921H200.127V69.7335H146.015ZM200.127 40.9994H155.921H146.015V29.5058H155.921H200.127V40.9994ZM155.921 12.3611H200.127V0.771729H146.015V12.3611H155.921Z" fill="white"/>
<path fill-rule="evenodd" clip-rule="evenodd" d="M509.365 45.737L526.603 69.8296H537.654V67.1478L522.2 45.7047L526.848 45.693C528.868 45.693 530.696 45.1184 532.333 43.969C534.025 42.8196 535.362 41.2552 536.345 39.2758C537.381 37.2963 537.9 35.1572 537.9 32.8585V13.894C537.9 11.5315 537.381 9.39237 536.345 7.47677C535.362 5.49731 534.025 3.9329 532.333 2.78353C530.696 1.57032 528.868 0.963718 526.848 0.963718H478.959V12.4573H490.256H526.521C526.903 12.4573 527.23 12.6489 527.503 13.032C527.831 13.3513 527.995 13.7344 527.995 14.1814V32.3796C527.995 32.8904 527.831 33.3055 527.503 33.6247C527.23 33.944 526.903 34.1036 526.521 34.1036H490.256H478.959V69.8296H488.782V45.7888L509.365 45.737Z" fill="white"/>
<path fill-rule="evenodd" clip-rule="evenodd" d="M113.225 45.6414L130.463 69.734H141.515V67.0522L126.061 45.6091L130.709 45.5974C132.728 45.5974 134.556 45.0228 136.194 43.8734C137.885 42.724 139.222 41.1596 140.205 39.1802C141.242 37.2007 141.76 35.0616 141.76 32.7629V13.7984C141.76 11.4358 141.242 9.29672 140.205 7.38112C139.222 5.40166 137.885 3.83725 136.194 2.68789C134.556 1.47468 132.728 0.868065 130.709 0.868065H82.8188V12.3617H94.1159H130.381C130.763 12.3617 131.091 12.5533 131.364 12.9364C131.691 13.2556 131.855 13.6387 131.855 14.0857V32.284C131.855 32.7948 131.691 33.2099 131.364 33.5291C131.091 33.8484 130.763 34.008 130.381 34.008H94.1159H82.8188V69.734H92.6423V45.6932L113.225 45.6414Z" fill="white"/>
<path d="M10.4029 107.394L16.9632 85.3996H19.1212L11.2661 110.536H9.67781L10.4029 107.394ZM3.73902 85.3996L10.2648 107.394L10.9899 110.536H9.41885L1.58103 85.3996H3.73902ZM24.5938 91.8563V110.536H22.6776V91.8563H24.5938ZM22.3841 86.4872C22.3841 86.0729 22.4934 85.7334 22.7121 85.4687C22.9423 85.1924 23.2588 85.0543 23.6616 85.0543C24.0529 85.0543 24.3579 85.1924 24.5766 85.4687C24.8068 85.7334 24.9219 86.0729 24.9219 86.4872C24.9219 86.867 24.8068 87.1893 24.5766 87.454C24.3579 87.7187 24.0529 87.8511 23.6616 87.8511C23.2588 87.8511 22.9423 87.7187 22.7121 87.454C22.4934 87.1893 22.3841 86.867 22.3841 86.4872ZM40.1141 106.91V84.0185H42.0304V110.536H40.235L40.1141 106.91ZM29.2724 102.077V100.333C29.2724 98.7676 29.4105 97.4268 29.6867 96.3104C29.9744 95.1825 30.383 94.2675 30.9124 93.5654C31.4419 92.8634 32.0806 92.3455 32.8287 92.0117C33.5884 91.6779 34.4343 91.511 35.3665 91.511C36.2758 91.511 37.0699 91.6837 37.749 92.029C38.4395 92.3627 39.0265 92.8404 39.5099 93.4619C39.9933 94.0834 40.3846 94.8257 40.6838 95.6889C40.9831 96.5406 41.2017 97.4959 41.3399 98.5547V104.131C41.2248 105.121 41.0176 106.03 40.7184 106.859C40.4306 107.687 40.0393 108.401 39.5444 108.999C39.061 109.598 38.4683 110.064 37.7662 110.398C37.0642 110.732 36.247 110.898 35.3147 110.898C34.394 110.898 33.5596 110.72 32.8115 110.363C32.0749 110.006 31.4419 109.466 30.9124 108.74C30.383 108.015 29.9744 107.1 29.6867 105.995C29.4105 104.891 29.2724 103.584 29.2724 102.077ZM31.2059 100.333V102.077C31.2059 103.274 31.2923 104.309 31.4649 105.184C31.649 106.059 31.9253 106.784 32.2936 107.359C32.6734 107.923 33.1452 108.349 33.7092 108.637C34.2732 108.913 34.9407 109.051 35.7118 109.051C36.6901 109.051 37.5073 108.85 38.1633 108.447C38.8193 108.033 39.343 107.492 39.7343 106.824C40.1371 106.145 40.4306 105.403 40.6148 104.597V98.2094C40.4997 97.657 40.327 97.0988 40.0969 96.5348C39.8782 95.9594 39.5847 95.4299 39.2164 94.9466C38.8481 94.4632 38.3762 94.0776 37.8008 93.7899C37.2368 93.4906 36.552 93.341 35.7463 93.341C34.9637 93.341 34.2847 93.4849 33.7092 93.7726C33.1337 94.0488 32.6619 94.4747 32.2936 95.0501C31.9253 95.6256 31.649 96.3507 31.4649 97.2254C31.2923 98.0886 31.2059 99.1244 31.2059 100.333ZM53.3901 110.898C52.3542 110.898 51.399 110.732 50.5243 110.398C49.6611 110.052 48.913 109.535 48.28 108.844C47.6585 108.142 47.1751 107.261 46.8298 106.203C46.4845 105.132 46.3119 103.872 46.3119 102.422V100.264C46.3119 98.7216 46.496 97.398 46.8643 96.2931C47.2326 95.1767 47.7275 94.2675 48.349 93.5654C48.982 92.8519 49.7014 92.334 50.507 92.0117C51.3127 91.6779 52.1643 91.511 53.0621 91.511C54.0864 91.511 54.9841 91.6779 55.7552 92.0117C56.5379 92.3455 57.1939 92.8519 57.7233 93.5309C58.2528 94.21 58.6498 95.0674 58.9145 96.1032C59.1793 97.1276 59.3116 98.3418 59.3116 99.7459V101.351H47.4686V99.556H57.3953V99.0726C57.3723 97.8527 57.1997 96.8168 56.8774 95.9651C56.5666 95.1019 56.0948 94.4459 55.4618 93.997C54.8403 93.5367 54.0461 93.3065 53.0793 93.3065C52.3658 93.3065 51.7097 93.4388 51.1112 93.7036C50.5128 93.9568 49.9948 94.3596 49.5575 94.912C49.1316 95.4645 48.8036 96.1838 48.5734 97.07C48.3548 97.9562 48.2454 99.0208 48.2454 100.264V102.422C48.2454 103.561 48.3663 104.551 48.608 105.391C48.8612 106.22 49.218 106.91 49.6783 107.463C50.1387 108.004 50.6912 108.412 51.3357 108.689C51.9802 108.953 52.6938 109.086 53.4764 109.086C54.4432 109.086 55.2891 108.925 56.0142 108.602C56.7393 108.269 57.3838 107.768 57.9478 107.1L58.9663 108.378C58.6211 108.827 58.1952 109.247 57.6888 109.638C57.1824 110.018 56.5782 110.323 55.8761 110.553C55.174 110.783 54.3454 110.898 53.3901 110.898ZM62.6953 102.163V100.229C62.6953 98.8137 62.8565 97.5649 63.1787 96.483C63.5125 95.4012 63.9786 94.4919 64.5771 93.7553C65.1871 93.0072 65.9122 92.449 66.7524 92.0807C67.5925 91.7009 68.5133 91.511 69.5146 91.511C70.5389 91.511 71.4654 91.7009 72.2941 92.0807C73.1343 92.449 73.8536 93.0072 74.4521 93.7553C75.0621 94.4919 75.5339 95.4012 75.8677 96.483C76.2015 97.5649 76.3684 98.8137 76.3684 100.229V102.163C76.3684 103.579 76.2015 104.833 75.8677 105.926C75.5339 107.008 75.0621 107.918 74.4521 108.654C73.8536 109.391 73.1343 109.949 72.2941 110.329C71.4654 110.709 70.5447 110.898 69.5319 110.898C68.519 110.898 67.5925 110.709 66.7524 110.329C65.9237 109.949 65.2044 109.391 64.5944 108.654C63.9844 107.906 63.5125 106.991 63.1787 105.909C62.8565 104.827 62.6953 103.579 62.6953 102.163ZM64.6289 100.229V102.163C64.6289 103.233 64.7325 104.194 64.9397 105.046C65.1583 105.898 65.4806 106.623 65.9064 107.221C66.3323 107.82 66.8444 108.28 67.4429 108.602C68.0529 108.925 68.7492 109.086 69.5319 109.086C70.3605 109.086 71.0799 108.925 71.6898 108.602C72.3113 108.28 72.8235 107.82 73.2263 107.221C73.6407 106.623 73.9457 105.898 74.1413 105.046C74.3485 104.194 74.4521 103.233 74.4521 102.163V100.229C74.4521 99.182 74.3427 98.2325 74.1241 97.3808C73.9054 96.5291 73.5774 95.804 73.14 95.2055C72.7142 94.5955 72.1963 94.1294 71.5863 93.8071C70.9763 93.4734 70.2857 93.3065 69.5146 93.3065C68.755 93.3065 68.0702 93.4734 67.4602 93.8071C66.8502 94.1294 66.3323 94.5955 65.9064 95.2055C65.4921 95.804 65.1756 96.5291 64.9569 97.3808C64.7382 98.2325 64.6289 99.182 64.6289 100.229ZM94.6509 109.086C95.3645 109.086 96.032 108.953 96.6535 108.689C97.2865 108.424 97.8044 107.975 98.2072 107.342C98.6101 106.709 98.8403 105.84 98.8978 104.735H100.728C100.682 106.07 100.377 107.198 99.8128 108.119C99.2488 109.028 98.518 109.719 97.6203 110.191C96.7225 110.662 95.7328 110.898 94.6509 110.898C93.5345 110.898 92.5562 110.714 91.716 110.346C90.8758 109.978 90.1738 109.431 89.6098 108.706C89.0459 107.969 88.62 107.066 88.3323 105.995C88.0445 104.914 87.9007 103.665 87.9007 102.249V100.126C87.9007 98.7216 88.0445 97.4844 88.3323 96.414C88.62 95.3321 89.0459 94.4286 89.6098 93.7036C90.1738 92.9785 90.8758 92.4318 91.716 92.0635C92.5562 91.6952 93.5345 91.511 94.6509 91.511C95.7903 91.511 96.8089 91.7527 97.7066 92.2361C98.6043 92.708 99.3179 93.4331 99.8473 94.4114C100.388 95.3897 100.682 96.6384 100.728 98.1577H98.8978C98.8518 96.9952 98.6331 96.063 98.2418 95.3609C97.862 94.6473 97.3613 94.1294 96.7398 93.8071C96.1183 93.4734 95.422 93.3065 94.6509 93.3065C93.7647 93.3065 93.0108 93.4619 92.3893 93.7726C91.7793 94.0719 91.2844 94.515 90.9046 95.1019C90.5248 95.6889 90.2486 96.4025 90.0759 97.2427C89.9033 98.0828 89.817 99.0439 89.817 100.126V102.249C89.817 103.343 89.9033 104.315 90.0759 105.167C90.2486 106.018 90.5248 106.738 90.9046 107.325C91.2959 107.9 91.7966 108.338 92.4066 108.637C93.0281 108.936 93.7762 109.086 94.6509 109.086ZM106.736 84.0185V110.536H104.819V84.0185H106.736ZM106.304 100.039L105.458 99.5388C105.504 98.4339 105.683 97.398 105.993 96.4313C106.316 95.4645 106.753 94.6128 107.305 93.8762C107.858 93.1281 108.508 92.5469 109.256 92.1325C110.004 91.7182 110.833 91.511 111.742 91.511C112.513 91.511 113.21 91.6376 113.831 91.8908C114.453 92.144 114.976 92.5411 115.402 93.0821C115.839 93.623 116.173 94.3308 116.403 95.2055C116.634 96.0802 116.749 97.1333 116.749 98.3648V110.536H114.832V98.3476C114.832 97.07 114.689 96.0687 114.401 95.3436C114.113 94.6185 113.699 94.1064 113.158 93.8071C112.628 93.4964 111.99 93.341 111.242 93.341C110.447 93.341 109.745 93.5539 109.135 93.9798C108.537 94.4056 108.025 94.9581 107.599 95.6371C107.184 96.3162 106.868 97.047 106.649 97.8296C106.431 98.6008 106.316 99.3374 106.304 100.039ZM131.337 107.187V97.0182C131.337 96.1435 131.187 95.4357 130.888 94.8948C130.589 94.3423 130.151 93.9395 129.576 93.6863C129 93.4331 128.293 93.3065 127.452 93.3065C126.658 93.3065 125.95 93.4676 125.329 93.7899C124.719 94.1006 124.241 94.538 123.896 95.1019C123.562 95.6544 123.395 96.2931 123.395 97.0182L121.479 97.001C121.479 96.2874 121.623 95.6026 121.911 94.9466C122.198 94.279 122.607 93.692 123.136 93.1856C123.666 92.6677 124.299 92.2591 125.035 91.9599C125.783 91.6607 126.612 91.511 127.521 91.511C128.638 91.511 129.628 91.6894 130.491 92.0462C131.354 92.403 132.027 92.99 132.511 93.8071C133.006 94.6243 133.253 95.7062 133.253 97.0528V106.6C133.253 107.256 133.293 107.929 133.374 108.62C133.466 109.31 133.587 109.874 133.736 110.311V110.536H131.699C131.573 110.133 131.481 109.621 131.423 108.999C131.366 108.366 131.337 107.762 131.337 107.187ZM131.734 99.6251L131.786 101.265H128.471C127.573 101.265 126.785 101.363 126.106 101.559C125.427 101.754 124.857 102.036 124.397 102.405C123.948 102.773 123.608 103.21 123.378 103.717C123.148 104.223 123.033 104.799 123.033 105.443C123.033 106.272 123.165 106.951 123.43 107.48C123.695 107.998 124.08 108.384 124.587 108.637C125.104 108.879 125.72 108.999 126.434 108.999C127.378 108.999 128.206 108.815 128.92 108.447C129.645 108.067 130.238 107.566 130.698 106.945C131.158 106.312 131.458 105.644 131.596 104.942L132.114 106.116C131.999 106.646 131.786 107.187 131.475 107.739C131.164 108.292 130.761 108.809 130.266 109.293C129.771 109.765 129.184 110.15 128.505 110.45C127.826 110.749 127.061 110.898 126.209 110.898C125.185 110.898 124.287 110.703 123.516 110.311C122.757 109.92 122.164 109.327 121.738 108.533C121.324 107.739 121.116 106.761 121.116 105.598C121.116 104.735 121.26 103.941 121.548 103.216C121.847 102.491 122.29 101.864 122.877 101.334C123.464 100.793 124.201 100.373 125.087 100.074C125.973 99.7747 127.003 99.6251 128.177 99.6251H131.734ZM144.578 91.8563V93.5827H136.602V91.8563H144.578ZM139.468 87.0742H141.402V105.978C141.402 106.841 141.494 107.492 141.678 107.929C141.862 108.366 142.104 108.66 142.403 108.809C142.702 108.948 143.024 109.017 143.37 109.017C143.634 109.017 143.882 108.999 144.112 108.965C144.354 108.93 144.567 108.884 144.751 108.827L144.82 110.588C144.601 110.68 144.319 110.749 143.974 110.795C143.64 110.852 143.283 110.881 142.904 110.881C142.259 110.881 141.678 110.732 141.16 110.432C140.642 110.122 140.228 109.609 139.917 108.896C139.618 108.182 139.468 107.204 139.468 105.961V87.0742ZM160.271 96.9664L163.62 93.9453C164.23 93.4043 164.731 92.8231 165.122 92.2016C165.514 91.5801 165.709 90.8435 165.709 89.9918C165.709 89.1747 165.462 88.4438 164.967 87.7993C164.483 87.1548 163.793 86.8325 162.895 86.8325C162.239 86.8325 161.687 87.0109 161.238 87.3677C160.801 87.7245 160.467 88.1964 160.237 88.7833C160.006 89.3703 159.891 90.0148 159.891 90.7169C159.891 91.2693 159.983 91.8448 160.167 92.4433C160.363 93.0303 160.639 93.646 160.996 94.2905C161.364 94.9235 161.796 95.5911 162.291 96.2931L172.511 110.536H170.215L161.566 98.4511C160.852 97.4613 160.219 96.5464 159.667 95.7062C159.126 94.866 158.706 94.0488 158.407 93.2547C158.107 92.4606 157.958 91.6376 157.958 90.786C157.958 89.6005 158.159 88.5819 158.562 87.7302C158.965 86.867 159.54 86.2053 160.288 85.7449C161.036 85.273 161.905 85.0371 162.895 85.0371C163.862 85.0371 164.691 85.2672 165.381 85.7276C166.072 86.1765 166.601 86.775 166.969 87.5231C167.338 88.2712 167.522 89.0998 167.522 90.0091C167.522 90.7572 167.384 91.4535 167.108 92.098C166.843 92.731 166.492 93.3122 166.054 93.8417C165.629 94.3711 165.168 94.8487 164.673 95.2746L160.754 98.8137C159.949 99.6078 159.356 100.333 158.976 100.989C158.596 101.645 158.343 102.238 158.217 102.767C158.102 103.285 158.044 103.728 158.044 104.096C158.044 104.983 158.211 105.806 158.545 106.565C158.878 107.313 159.391 107.918 160.081 108.378C160.783 108.838 161.664 109.068 162.723 109.068C163.609 109.068 164.466 108.838 165.295 108.378C166.135 107.906 166.883 107.238 167.539 106.375C168.195 105.501 168.713 104.465 169.093 103.268C169.484 102.059 169.68 100.718 169.68 99.2453H171.441C171.441 100.339 171.349 101.369 171.165 102.336C170.992 103.291 170.727 104.177 170.37 104.994C170.014 105.811 169.576 106.559 169.058 107.238C168.978 107.342 168.92 107.428 168.886 107.497C168.863 107.566 168.805 107.653 168.713 107.756C167.954 108.723 167.044 109.489 165.985 110.052C164.938 110.605 163.85 110.881 162.723 110.881C161.353 110.881 160.173 110.599 159.183 110.035C158.205 109.471 157.446 108.683 156.905 107.67C156.375 106.646 156.11 105.46 156.11 104.114C156.11 103.101 156.289 102.186 156.646 101.369C157.014 100.552 157.509 99.7862 158.13 99.0726C158.763 98.3591 159.477 97.657 160.271 96.9664ZM184.164 85.3996H191.053C192.537 85.3996 193.815 85.6873 194.885 86.2628C195.967 86.8268 196.796 87.6612 197.371 88.7661C197.958 89.8595 198.252 91.206 198.252 92.8058C198.252 93.9913 198.045 95.0674 197.63 96.0342C197.216 97.001 196.64 97.8066 195.904 98.4511C195.179 99.0957 194.327 99.5388 193.349 99.7805L192.693 100.074H185.511L185.476 98.2267H191.381C192.474 98.2267 193.383 97.9735 194.108 97.4671C194.833 96.9492 195.374 96.2816 195.731 95.4645C196.099 94.6358 196.284 93.7496 196.284 92.8058C196.284 91.6664 196.082 90.6824 195.679 89.8537C195.288 89.025 194.701 88.3863 193.918 87.9374C193.147 87.477 192.192 87.2468 191.053 87.2468H186.15V110.536H184.164V85.3996ZM197.061 110.536L191.657 99.2798L193.763 99.2625L199.167 110.311V110.536H197.061ZM209.387 110.898C208.351 110.898 207.396 110.732 206.521 110.398C205.658 110.052 204.91 109.535 204.277 108.844C203.655 108.142 203.172 107.261 202.827 106.203C202.481 105.132 202.309 103.872 202.309 102.422V100.264C202.309 98.7216 202.493 97.398 202.861 96.2931C203.229 95.1767 203.724 94.2675 204.346 93.5654C204.979 92.8519 205.698 92.334 206.504 92.0117C207.31 91.6779 208.161 91.511 209.059 91.511C210.083 91.511 210.981 91.6779 211.752 92.0117C212.535 92.3455 213.191 92.8519 213.72 93.5309C214.25 94.21 214.647 95.0674 214.911 96.1032C215.176 97.1276 215.308 98.3418 215.308 99.7459V101.351H203.465V99.556H213.392V99.0726C213.369 97.8527 213.197 96.8168 212.874 95.9651C212.564 95.1019 212.092 94.4459 211.459 93.997C210.837 93.5367 210.043 93.3065 209.076 93.3065C208.363 93.3065 207.707 93.4388 207.108 93.7036C206.51 93.9568 205.992 94.3596 205.554 94.912C205.129 95.4645 204.801 96.1838 204.57 97.07C204.352 97.9562 204.242 99.0208 204.242 100.264V102.422C204.242 103.561 204.363 104.551 204.605 105.391C204.858 106.22 205.215 106.91 205.675 107.463C206.136 108.004 206.688 108.412 207.333 108.689C207.977 108.953 208.691 109.086 209.473 109.086C210.44 109.086 211.286 108.925 212.011 108.602C212.736 108.269 213.381 107.768 213.945 107.1L214.963 108.378C214.618 108.827 214.192 109.247 213.686 109.638C213.179 110.018 212.575 110.323 211.873 110.553C211.171 110.783 210.342 110.898 209.387 110.898ZM221.265 95.6889V110.536H219.331V91.8563H221.178L221.265 95.6889ZM220.902 100.039L219.987 99.5388C220.033 98.4339 220.2 97.398 220.488 96.4313C220.787 95.4645 221.195 94.6128 221.713 93.8762C222.243 93.1281 222.887 92.5469 223.647 92.1325C224.407 91.7182 225.27 91.511 226.237 91.511C226.996 91.511 227.681 91.6376 228.291 91.8908C228.912 92.1325 229.448 92.5181 229.897 93.0475C230.345 93.5654 230.691 94.2445 230.932 95.0847C231.174 95.9133 231.295 96.9204 231.295 98.1059V110.536H229.379V98.1749C229.379 96.9434 229.217 95.9766 228.895 95.2746C228.584 94.5725 228.147 94.0776 227.583 93.7899C227.031 93.4906 226.38 93.341 225.632 93.341C224.769 93.341 224.038 93.5539 223.44 93.9798C222.841 94.4056 222.358 94.9581 221.99 95.6371C221.633 96.3162 221.368 97.047 221.195 97.8296C221.023 98.6008 220.925 99.3374 220.902 100.039ZM231.278 98.4166L229.983 98.4857C230.029 97.5764 230.201 96.7075 230.501 95.8788C230.8 95.0386 231.214 94.2963 231.744 93.6518C232.273 92.9957 232.906 92.4778 233.643 92.098C234.391 91.7067 235.237 91.511 236.181 91.511C236.998 91.511 237.729 91.6434 238.373 91.9081C239.018 92.1613 239.559 92.5641 239.996 93.1166C240.445 93.669 240.784 94.3768 241.014 95.24C241.245 96.1032 241.36 97.1391 241.36 98.3476V110.536H239.426V98.3303C239.426 97.0297 239.265 96.0169 238.943 95.2918C238.632 94.5668 238.195 94.0603 237.631 93.7726C237.078 93.4734 236.434 93.3295 235.697 93.341C234.972 93.341 234.333 93.5021 233.781 93.8244C233.24 94.1467 232.785 94.561 232.417 95.0674C232.06 95.5623 231.784 96.109 231.588 96.7075C231.404 97.2945 231.301 97.8642 231.278 98.4166ZM245.658 102.163V100.229C245.658 98.8137 245.82 97.5649 246.142 96.483C246.476 95.4012 246.942 94.4919 247.54 93.7553C248.15 93.0072 248.875 92.449 249.715 92.0807C250.556 91.7009 251.476 91.511 252.478 91.511C253.502 91.511 254.429 91.7009 255.257 92.0807C256.097 92.449 256.817 93.0072 257.415 93.7553C258.025 94.4919 258.497 95.4012 258.831 96.483C259.165 97.5649 259.332 98.8137 259.332 100.229V102.163C259.332 103.579 259.165 104.833 258.831 105.926C258.497 107.008 258.025 107.918 257.415 108.654C256.817 109.391 256.097 109.949 255.257 110.329C254.429 110.709 253.508 110.898 252.495 110.898C251.482 110.898 250.556 110.709 249.715 110.329C248.887 109.949 248.167 109.391 247.558 108.654C246.948 107.906 246.476 106.991 246.142 105.909C245.82 104.827 245.658 103.579 245.658 102.163ZM247.592 100.229V102.163C247.592 103.233 247.696 104.194 247.903 105.046C248.121 105.898 248.444 106.623 248.87 107.221C249.295 107.82 249.808 108.28 250.406 108.602C251.016 108.925 251.712 109.086 252.495 109.086C253.324 109.086 254.043 108.925 254.653 108.602C255.274 108.28 255.787 107.82 256.189 107.221C256.604 106.623 256.909 105.898 257.104 105.046C257.312 104.194 257.415 103.233 257.415 102.163V100.229C257.415 99.182 257.306 98.2325 257.087 97.3808C256.869 96.5291 256.541 95.804 256.103 95.2055C255.677 94.5955 255.159 94.1294 254.549 93.8071C253.939 93.4734 253.249 93.3065 252.478 93.3065C251.718 93.3065 251.033 93.4734 250.423 93.8071C249.813 94.1294 249.295 94.5955 248.87 95.2055C248.455 95.804 248.139 96.5291 247.92 97.3808C247.701 98.2325 247.592 99.182 247.592 100.229ZM269.811 91.8563V93.5827H261.835V91.8563H269.811ZM264.701 87.0742H266.634V105.978C266.634 106.841 266.726 107.492 266.91 107.929C267.095 108.366 267.336 108.66 267.635 108.809C267.935 108.948 268.257 109.017 268.602 109.017C268.867 109.017 269.114 108.999 269.345 108.965C269.586 108.93 269.799 108.884 269.983 108.827L270.052 110.588C269.834 110.68 269.552 110.749 269.206 110.795C268.873 110.852 268.516 110.881 268.136 110.881C267.492 110.881 266.91 110.732 266.392 110.432C265.875 110.122 265.46 109.609 265.149 108.896C264.85 108.182 264.701 107.204 264.701 105.961V87.0742ZM280.204 110.898C279.168 110.898 278.212 110.732 277.338 110.398C276.475 110.052 275.726 109.535 275.093 108.844C274.472 108.142 273.989 107.261 273.643 106.203C273.298 105.132 273.125 103.872 273.125 102.422V100.264C273.125 98.7216 273.31 97.398 273.678 96.2931C274.046 95.1767 274.541 94.2675 275.163 93.5654C275.796 92.8519 276.515 92.334 277.321 92.0117C278.126 91.6779 278.978 91.511 279.876 91.511C280.9 91.511 281.798 91.6779 282.569 92.0117C283.351 92.3455 284.007 92.8519 284.537 93.5309C285.066 94.21 285.463 95.0674 285.728 96.1032C285.993 97.1276 286.125 98.3418 286.125 99.7459V101.351H274.282V99.556H284.209V99.0726C284.186 97.8527 284.013 96.8168 283.691 95.9651C283.38 95.1019 282.908 94.4459 282.275 93.997C281.654 93.5367 280.86 93.3065 279.893 93.3065C279.179 93.3065 278.523 93.4388 277.925 93.7036C277.326 93.9568 276.808 94.3596 276.371 94.912C275.945 95.4645 275.617 96.1838 275.387 97.07C275.168 97.9562 275.059 99.0208 275.059 100.264V102.422C275.059 103.561 275.18 104.551 275.421 105.391C275.675 106.22 276.031 106.91 276.492 107.463C276.952 108.004 277.505 108.412 278.149 108.689C278.794 108.953 279.507 109.086 280.29 109.086C281.257 109.086 282.103 108.925 282.828 108.602C283.553 108.269 284.197 107.768 284.761 107.1L285.78 108.378C285.435 108.827 285.009 109.247 284.502 109.638C283.996 110.018 283.392 110.323 282.69 110.553C281.988 110.783 281.159 110.898 280.204 110.898ZM311.693 102.681H313.678C313.563 104.557 313.189 106.105 312.556 107.325C311.923 108.533 311.043 109.431 309.915 110.018C308.798 110.605 307.446 110.898 305.858 110.898C304.649 110.898 303.562 110.662 302.595 110.191C301.628 109.719 300.799 109.034 300.109 108.136C299.43 107.238 298.906 106.157 298.538 104.891C298.181 103.613 298.003 102.174 298.003 100.575V95.1883C298.003 93.6115 298.181 92.2016 298.538 90.9586C298.906 89.7041 299.436 88.6395 300.126 87.7648C300.828 86.8785 301.668 86.2053 302.647 85.7449C303.636 85.2845 304.759 85.0543 306.013 85.0543C307.532 85.0543 308.839 85.3421 309.932 85.9175C311.037 86.493 311.906 87.385 312.539 88.5934C313.183 89.8019 313.563 91.3614 313.678 93.272H311.693C311.589 91.7297 311.313 90.4925 310.864 89.5602C310.415 88.628 309.788 87.9547 308.983 87.5403C308.188 87.1145 307.199 86.9016 306.013 86.9016C305.035 86.9016 304.172 87.0915 303.424 87.4713C302.687 87.8396 302.06 88.3805 301.542 89.0941C301.035 89.7962 300.65 90.6594 300.385 91.6837C300.12 92.6965 299.988 93.8532 299.988 95.1537V100.575C299.988 101.852 300.115 103.015 300.368 104.062C300.621 105.098 300.989 105.99 301.473 106.738C301.968 107.486 302.578 108.061 303.303 108.464C304.039 108.856 304.891 109.051 305.858 109.051C307.101 109.051 308.131 108.856 308.948 108.464C309.765 108.073 310.398 107.417 310.847 106.496C311.296 105.564 311.578 104.292 311.693 102.681ZM317.476 102.163V100.229C317.476 98.8137 317.638 97.5649 317.96 96.483C318.294 95.4012 318.76 94.4919 319.358 93.7553C319.968 93.0072 320.693 92.449 321.533 92.0807C322.374 91.7009 323.294 91.511 324.296 91.511C325.32 91.511 326.246 91.7009 327.075 92.0807C327.915 92.449 328.635 93.0072 329.233 93.7553C329.843 94.4919 330.315 95.4012 330.649 96.483C330.983 97.5649 331.149 98.8137 331.149 100.229V102.163C331.149 103.579 330.983 104.833 330.649 105.926C330.315 107.008 329.843 107.918 329.233 108.654C328.635 109.391 327.915 109.949 327.075 110.329C326.246 110.709 325.326 110.898 324.313 110.898C323.3 110.898 322.374 110.709 321.533 110.329C320.705 109.949 319.985 109.391 319.375 108.654C318.765 107.906 318.294 106.991 317.96 105.909C317.638 104.827 317.476 103.579 317.476 102.163ZM319.41 100.229V102.163C319.41 103.233 319.514 104.194 319.721 105.046C319.939 105.898 320.262 106.623 320.688 107.221C321.113 107.82 321.626 108.28 322.224 108.602C322.834 108.925 323.53 109.086 324.313 109.086C325.142 109.086 325.861 108.925 326.471 108.602C327.092 108.28 327.605 107.82 328.007 107.221C328.422 106.623 328.727 105.898 328.922 105.046C329.13 104.194 329.233 103.233 329.233 102.163V100.229C329.233 99.182 329.124 98.2325 328.905 97.3808C328.686 96.5291 328.358 95.804 327.921 95.2055C327.495 94.5955 326.977 94.1294 326.367 93.8071C325.757 93.4734 325.067 93.3065 324.296 93.3065C323.536 93.3065 322.851 93.4734 322.241 93.8071C321.631 94.1294 321.113 94.5955 320.688 95.2055C320.273 95.804 319.957 96.5291 319.738 97.3808C319.519 98.2325 319.41 99.182 319.41 100.229ZM345.72 106.91V84.0185H347.637V110.536H345.841L345.72 106.91ZM334.878 102.077V100.333C334.878 98.7676 335.017 97.4268 335.293 96.3104C335.581 95.1825 335.989 94.2675 336.519 93.5654C337.048 92.8634 337.687 92.3455 338.435 92.0117C339.194 91.6779 340.04 91.511 340.973 91.511C341.882 91.511 342.676 91.6837 343.355 92.029C344.046 92.3627 344.633 92.8404 345.116 93.4619C345.599 94.0834 345.991 94.8257 346.29 95.6889C346.589 96.5406 346.808 97.4959 346.946 98.5547V104.131C346.831 105.121 346.624 106.03 346.324 106.859C346.037 107.687 345.645 108.401 345.151 108.999C344.667 109.598 344.074 110.064 343.372 110.398C342.67 110.732 341.853 110.898 340.921 110.898C340 110.898 339.166 110.72 338.418 110.363C337.681 110.006 337.048 109.466 336.519 108.74C335.989 108.015 335.581 107.1 335.293 105.995C335.017 104.891 334.878 103.584 334.878 102.077ZM336.812 100.333V102.077C336.812 103.274 336.898 104.309 337.071 105.184C337.255 106.059 337.531 106.784 337.9 107.359C338.279 107.923 338.751 108.349 339.315 108.637C339.879 108.913 340.547 109.051 341.318 109.051C342.296 109.051 343.113 108.85 343.769 108.447C344.425 108.033 344.949 107.492 345.34 106.824C345.743 106.145 346.037 105.403 346.221 104.597V98.2094C346.106 97.657 345.933 97.0988 345.703 96.5348C345.484 95.9594 345.191 95.4299 344.822 94.9466C344.454 94.4632 343.982 94.0776 343.407 93.7899C342.843 93.4906 342.158 93.341 341.352 93.341C340.57 93.341 339.891 93.4849 339.315 93.7726C338.74 94.0488 338.268 94.4747 337.9 95.0501C337.531 95.6256 337.255 96.3507 337.071 97.2254C336.898 98.0886 336.812 99.1244 336.812 100.333ZM358.996 110.898C357.96 110.898 357.005 110.732 356.13 110.398C355.267 110.052 354.519 109.535 353.886 108.844C353.265 108.142 352.781 107.261 352.436 106.203C352.091 105.132 351.918 103.872 351.918 102.422V100.264C351.918 98.7216 352.102 97.398 352.47 96.2931C352.839 95.1767 353.334 94.2675 353.955 93.5654C354.588 92.8519 355.307 92.334 356.113 92.0117C356.919 91.6779 357.77 91.511 358.668 91.511C359.692 91.511 360.59 91.6779 361.361 92.0117C362.144 92.3455 362.8 92.8519 363.329 93.5309C363.859 94.21 364.256 95.0674 364.521 96.1032C364.785 97.1276 364.918 98.3418 364.918 99.7459V101.351H353.075V99.556H363.001V99.0726C362.978 97.8527 362.806 96.8168 362.483 95.9651C362.173 95.1019 361.701 94.4459 361.068 93.997C360.446 93.5367 359.652 93.3065 358.685 93.3065C357.972 93.3065 357.316 93.4388 356.717 93.7036C356.119 93.9568 355.601 94.3596 355.164 94.912C354.738 95.4645 354.41 96.1838 354.18 97.07C353.961 97.9562 353.852 99.0208 353.852 100.264V102.422C353.852 103.561 353.972 104.551 354.214 105.391C354.467 106.22 354.824 106.91 355.284 107.463C355.745 108.004 356.297 108.412 356.942 108.689C357.586 108.953 358.3 109.086 359.082 109.086C360.049 109.086 360.895 108.925 361.62 108.602C362.345 108.269 362.99 107.768 363.554 107.1L364.572 108.378C364.227 108.827 363.801 109.247 363.295 109.638C362.788 110.018 362.184 110.323 361.482 110.553C360.78 110.783 359.951 110.898 358.996 110.898ZM370.943 94.9293V110.536H369.027V91.8563H370.891L370.943 94.9293ZM376.381 91.7355L376.329 93.6518C376.122 93.6057 375.926 93.577 375.742 93.5654C375.558 93.5424 375.357 93.5309 375.138 93.5309C374.413 93.5309 373.78 93.692 373.239 94.0143C372.698 94.3366 372.238 94.7912 371.858 95.3782C371.49 95.9536 371.202 96.6269 370.995 97.398C370.799 98.1577 370.684 98.9806 370.649 99.8668L369.976 100.16C369.976 98.9518 370.08 97.8239 370.287 96.7765C370.494 95.7292 370.81 94.8084 371.236 94.0143C371.674 93.2202 372.22 92.6044 372.876 92.1671C373.544 91.7297 374.327 91.511 375.224 91.511C375.431 91.511 375.644 91.5341 375.863 91.5801C376.093 91.6146 376.266 91.6664 376.381 91.7355ZM403.692 95.2573V100.695C403.692 102.341 403.503 103.803 403.123 105.08C402.754 106.347 402.214 107.411 401.5 108.274C400.798 109.138 399.946 109.794 398.945 110.242C397.955 110.68 396.833 110.898 395.578 110.898C394.347 110.898 393.231 110.68 392.229 110.242C391.228 109.794 390.37 109.138 389.657 108.274C388.943 107.411 388.391 106.347 388 105.08C387.62 103.803 387.43 102.341 387.43 100.695V95.2573C387.43 93.6 387.62 92.1325 388 90.855C388.379 89.5775 388.92 88.5129 389.622 87.6612C390.336 86.8095 391.193 86.165 392.195 85.7276C393.196 85.2788 394.312 85.0543 395.544 85.0543C396.81 85.0543 397.944 85.2788 398.945 85.7276C399.946 86.165 400.798 86.8095 401.5 87.6612C402.214 88.5129 402.754 89.5775 403.123 90.855C403.503 92.1325 403.692 93.6 403.692 95.2573ZM401.724 100.695V95.2228C401.724 93.8532 401.586 92.6505 401.31 91.6146C401.045 90.5788 400.654 89.7156 400.136 89.025C399.618 88.3345 398.974 87.8166 398.203 87.4713C397.431 87.126 396.545 86.9534 395.544 86.9534C394.577 86.9534 393.708 87.126 392.937 87.4713C392.177 87.8166 391.533 88.3402 391.003 89.0423C390.486 89.7329 390.089 90.596 389.812 91.6319C389.536 92.6562 389.398 93.8532 389.398 95.2228V100.695C389.398 102.077 389.536 103.285 389.812 104.321C390.1 105.345 390.509 106.208 391.038 106.91C391.567 107.601 392.212 108.119 392.972 108.464C393.743 108.809 394.612 108.982 395.578 108.982C396.58 108.982 397.46 108.809 398.22 108.464C398.991 108.119 399.635 107.601 400.153 106.91C400.671 106.208 401.063 105.345 401.327 104.321C401.592 103.285 401.724 102.077 401.724 100.695ZM410.477 95.8443V110.536H408.561V91.8563H410.391L410.477 95.8443ZM410.046 100.039L409.2 99.5388C409.246 98.4339 409.424 97.398 409.735 96.4313C410.057 95.4645 410.494 94.6128 411.047 93.8762C411.599 93.1281 412.25 92.5469 412.998 92.1325C413.746 91.7182 414.575 91.511 415.484 91.511C416.255 91.511 416.951 91.6376 417.573 91.8908C418.194 92.144 418.718 92.5411 419.144 93.0821C419.581 93.623 419.915 94.3308 420.145 95.2055C420.375 96.0802 420.49 97.1333 420.49 98.3648V110.536H418.574V98.3476C418.574 97.07 418.43 96.0687 418.142 95.3436C417.855 94.6185 417.44 94.1064 416.899 93.8071C416.37 93.4964 415.731 93.341 414.983 93.341C414.189 93.341 413.487 93.5539 412.877 93.9798C412.278 94.4056 411.766 94.9581 411.34 95.6371C410.926 96.3162 410.61 97.047 410.391 97.8296C410.172 98.6008 410.057 99.3374 410.046 100.039ZM431.798 110.536H427.085L427.102 108.689H431.798C433.306 108.689 434.589 108.372 435.648 107.739C436.707 107.106 437.513 106.18 438.065 104.96C438.629 103.74 438.911 102.249 438.911 100.488V95.3954C438.911 94.0603 438.75 92.8864 438.428 91.8736C438.117 90.8493 437.656 89.9976 437.046 89.3185C436.448 88.628 435.717 88.11 434.854 87.7648C433.991 87.4195 433.018 87.2468 431.936 87.2468H426.982V85.3996H431.936C433.271 85.3996 434.48 85.6183 435.562 86.0556C436.655 86.493 437.599 87.1375 438.393 87.9892C439.187 88.8409 439.797 89.894 440.223 91.1485C440.649 92.3915 440.862 93.8186 440.862 95.4299V100.488C440.862 102.111 440.649 103.55 440.223 104.804C439.797 106.047 439.187 107.095 438.393 107.946C437.599 108.798 436.644 109.443 435.527 109.88C434.422 110.317 433.179 110.536 431.798 110.536ZM428.017 85.3996V110.536H426.032V85.3996H428.017ZM451.945 110.898C450.909 110.898 449.954 110.732 449.079 110.398C448.216 110.052 447.468 109.535 446.835 108.844C446.214 108.142 445.73 107.261 445.385 106.203C445.04 105.132 444.867 103.872 444.867 102.422V100.264C444.867 98.7216 445.051 97.398 445.419 96.2931C445.788 95.1767 446.283 94.2675 446.904 93.5654C447.537 92.8519 448.256 92.334 449.062 92.0117C449.868 91.6779 450.719 91.511 451.617 91.511C452.641 91.511 453.539 91.6779 454.31 92.0117C455.093 92.3455 455.749 92.8519 456.278 93.5309C456.808 94.21 457.205 95.0674 457.47 96.1032C457.734 97.1276 457.867 98.3418 457.867 99.7459V101.351H446.024V99.556H455.95V99.0726C455.927 97.8527 455.755 96.8168 455.432 95.9651C455.122 95.1019 454.65 94.4459 454.017 93.997C453.395 93.5367 452.601 93.3065 451.634 93.3065C450.921 93.3065 450.265 93.4388 449.666 93.7036C449.068 93.9568 448.55 94.3596 448.113 94.912C447.687 95.4645 447.359 96.1838 447.129 97.07C446.91 97.9562 446.801 99.0208 446.801 100.264V102.422C446.801 103.561 446.921 104.551 447.163 105.391C447.416 106.22 447.773 106.91 448.233 107.463C448.694 108.004 449.246 108.412 449.891 108.689C450.535 108.953 451.249 109.086 452.031 109.086C452.998 109.086 453.844 108.925 454.569 108.602C455.294 108.269 455.939 107.768 456.503 107.1L457.521 108.378C457.176 108.827 456.75 109.247 456.244 109.638C455.737 110.018 455.133 110.323 454.431 110.553C453.729 110.783 452.9 110.898 451.945 110.898ZM463.823 95.6889V110.536H461.889V91.8563H463.736L463.823 95.6889ZM463.46 100.039L462.545 99.5388C462.591 98.4339 462.758 97.398 463.046 96.4313C463.345 95.4645 463.754 94.6128 464.272 93.8762C464.801 93.1281 465.446 92.5469 466.205 92.1325C466.965 91.7182 467.828 91.511 468.795 91.511C469.554 91.511 470.239 91.6376 470.849 91.8908C471.471 92.1325 472.006 92.5181 472.455 93.0475C472.904 93.5654 473.249 94.2445 473.491 95.0847C473.732 95.9133 473.853 96.9204 473.853 98.1059V110.536H471.937V98.1749C471.937 96.9434 471.776 95.9766 471.453 95.2746C471.143 94.5725 470.705 94.0776 470.141 93.7899C469.589 93.4906 468.939 93.341 468.191 93.341C467.327 93.341 466.597 93.5539 465.998 93.9798C465.4 94.4056 464.916 94.9581 464.548 95.6371C464.191 96.3162 463.926 97.047 463.754 97.8296C463.581 98.6008 463.483 99.3374 463.46 100.039ZM473.836 98.4166L472.541 98.4857C472.587 97.5764 472.76 96.7075 473.059 95.8788C473.358 95.0386 473.773 94.2963 474.302 93.6518C474.831 92.9957 475.464 92.4778 476.201 92.098C476.949 91.7067 477.795 91.511 478.739 91.511C479.556 91.511 480.287 91.6434 480.931 91.9081C481.576 92.1613 482.117 92.5641 482.554 93.1166C483.003 93.669 483.343 94.3768 483.573 95.24C483.803 96.1032 483.918 97.1391 483.918 98.3476V110.536H481.984V98.3303C481.984 97.0297 481.823 96.0169 481.501 95.2918C481.19 94.5668 480.753 94.0603 480.189 93.7726C479.637 93.4734 478.992 93.3295 478.255 93.341C477.53 93.341 476.892 93.5021 476.339 93.8244C475.798 94.1467 475.344 94.561 474.975 95.0674C474.618 95.5623 474.342 96.109 474.147 96.7075C473.962 97.2945 473.859 97.8642 473.836 98.4166ZM498.437 107.187V97.0182C498.437 96.1435 498.287 95.4357 497.988 94.8948C497.689 94.3423 497.251 93.9395 496.676 93.6863C496.101 93.4331 495.393 93.3065 494.553 93.3065C493.758 93.3065 493.051 93.4676 492.429 93.7899C491.819 94.1006 491.341 94.538 490.996 95.1019C490.662 95.6544 490.496 96.2931 490.496 97.0182L488.579 97.001C488.579 96.2874 488.723 95.6026 489.011 94.9466C489.299 94.279 489.707 93.692 490.237 93.1856C490.766 92.6677 491.399 92.2591 492.136 91.9599C492.884 91.6607 493.712 91.511 494.622 91.511C495.738 91.511 496.728 91.6894 497.591 92.0462C498.454 92.403 499.127 92.99 499.611 93.8071C500.106 94.6243 500.353 95.7062 500.353 97.0528V106.6C500.353 107.256 500.394 107.929 500.474 108.62C500.566 109.31 500.687 109.874 500.837 110.311V110.536H498.799C498.673 110.133 498.581 109.621 498.523 108.999C498.466 108.366 498.437 107.762 498.437 107.187ZM498.834 99.6251L498.886 101.265H495.571C494.673 101.265 493.885 101.363 493.206 101.559C492.527 101.754 491.957 102.036 491.497 102.405C491.048 102.773 490.708 103.21 490.478 103.717C490.248 104.223 490.133 104.799 490.133 105.443C490.133 106.272 490.265 106.951 490.53 107.48C490.795 107.998 491.18 108.384 491.687 108.637C492.205 108.879 492.82 108.999 493.534 108.999C494.478 108.999 495.306 108.815 496.02 108.447C496.745 108.067 497.338 107.566 497.798 106.945C498.259 106.312 498.558 105.644 498.696 104.942L499.214 106.116C499.099 106.646 498.886 107.187 498.575 107.739C498.264 108.292 497.861 108.809 497.367 109.293C496.872 109.765 496.285 110.15 495.606 110.45C494.927 110.749 494.161 110.898 493.31 110.898C492.285 110.898 491.387 110.703 490.616 110.311C489.857 109.92 489.264 109.327 488.838 108.533C488.424 107.739 488.217 106.761 488.217 105.598C488.217 104.735 488.361 103.941 488.648 103.216C488.948 102.491 489.391 101.864 489.978 101.334C490.565 100.793 491.301 100.373 492.187 100.074C493.074 99.7747 494.104 99.6251 495.278 99.6251H498.834ZM507.535 95.8443V110.536H505.619V91.8563H507.449L507.535 95.8443ZM507.103 100.039L506.258 99.5388C506.304 98.4339 506.482 97.398 506.793 96.4313C507.115 95.4645 507.552 94.6128 508.105 93.8762C508.657 93.1281 509.307 92.5469 510.056 92.1325C510.804 91.7182 511.632 91.511 512.542 91.511C513.313 91.511 514.009 91.6376 514.631 91.8908C515.252 92.144 515.776 92.5411 516.202 93.0821C516.639 93.623 516.973 94.3308 517.203 95.2055C517.433 96.0802 517.548 97.1333 517.548 98.3648V110.536H515.632V98.3476C515.632 97.07 515.488 96.0687 515.2 95.3436C514.912 94.6185 514.498 94.1064 513.957 93.8071C513.428 93.4964 512.789 93.341 512.041 93.341C511.247 93.341 510.545 93.5539 509.935 93.9798C509.336 94.4056 508.824 94.9581 508.398 95.6371C507.984 96.3162 507.667 97.047 507.449 97.8296C507.23 98.6008 507.115 99.3374 507.103 100.039ZM532.827 106.91V84.0185H534.743V110.536H532.948L532.827 106.91ZM521.985 102.077V100.333C521.985 98.7676 522.123 97.4268 522.399 96.3104C522.687 95.1825 523.096 94.2675 523.625 93.5654C524.154 92.8634 524.793 92.3455 525.541 92.0117C526.301 91.6779 527.147 91.511 528.079 91.511C528.988 91.511 529.782 91.6837 530.462 92.029C531.152 92.3627 531.739 92.8404 532.222 93.4619C532.706 94.0834 533.097 94.8257 533.396 95.6889C533.696 96.5406 533.914 97.4959 534.052 98.5547V104.131C533.937 105.121 533.73 106.03 533.431 106.859C533.143 107.687 532.752 108.401 532.257 108.999C531.774 109.598 531.181 110.064 530.479 110.398C529.777 110.732 528.96 110.898 528.027 110.898C527.107 110.898 526.272 110.72 525.524 110.363C524.787 110.006 524.154 109.466 523.625 108.74C523.096 108.015 522.687 107.1 522.399 105.995C522.123 104.891 521.985 103.584 521.985 102.077ZM523.918 100.333V102.077C523.918 103.274 524.005 104.309 524.177 105.184C524.362 106.059 524.638 106.784 525.006 107.359C525.386 107.923 525.858 108.349 526.422 108.637C526.986 108.913 527.653 109.051 528.424 109.051C529.403 109.051 530.22 108.85 530.876 108.447C531.532 108.033 532.056 107.492 532.447 106.824C532.85 106.145 533.143 105.403 533.327 104.597V98.2094C533.212 97.657 533.04 97.0988 532.809 96.5348C532.591 95.9594 532.297 95.4299 531.929 94.9466C531.561 94.4632 531.089 94.0776 530.513 93.7899C529.949 93.4906 529.265 93.341 528.459 93.341C527.676 93.341 526.997 93.4849 526.422 93.7726C525.846 94.0488 525.374 94.4747 525.006 95.0501C524.638 95.6256 524.362 96.3507 524.177 97.2254C524.005 98.0886 523.918 99.1244 523.918 100.333Z" fill="white"/>
</svg>
