<svg width="93" height="44" viewBox="0 0 93 44" fill="none" xmlns="http://www.w3.org/2000/svg">
<path d="M15.5971 9.31505C15.5396 9.32943 15.2088 9.37257 14.8709 9.42289C14.533 9.46603 14.2239 9.53073 14.1808 9.5523C14.1448 9.58106 14.0226 9.74641 13.922 9.92615C13.5912 10.4941 13.1527 11.2562 13.0808 11.364C12.786 11.8457 12.4338 12.4712 12.4338 12.5143C12.4338 12.5503 12.3906 12.6222 12.3331 12.6725C12.2828 12.73 12.1318 12.9672 12.0024 13.2045C11.873 13.4346 11.6933 13.7653 11.5998 13.9378L11.4272 14.2469L11.5926 14.2038C11.6789 14.1751 11.8802 14.096 12.0383 14.0241C13.4259 13.3914 15.0866 13.2404 16.7689 13.5855C17.4088 13.7149 17.4088 13.7149 17.5022 13.564C17.833 13.0319 18.1852 12.4209 18.1852 12.3705C18.1852 12.3346 18.2284 12.2627 18.2859 12.2052C18.3434 12.1548 18.4872 11.9176 18.6166 11.6803C18.7388 11.4503 18.9114 11.1411 18.9976 10.9902C19.3787 10.3575 19.5512 10.0484 19.5512 9.99804C19.5512 9.91896 18.6525 9.63138 17.9336 9.4876C17.3297 9.36538 15.8415 9.25035 15.5971 9.31505Z" fill="#4D4D4F"/>
<path d="M23.2394 12.313C23.1603 12.4424 23.0812 12.6005 23.0453 12.6581C23.0165 12.7156 22.9231 12.8881 22.8368 13.0319C22.5277 13.5495 21.4564 15.3972 21.363 15.5769C21.2695 15.7567 21.2839 15.7854 21.7943 16.3102C22.6355 17.1945 22.9015 17.5684 23.3544 18.467C24.3034 20.3435 24.4472 22.8741 23.7211 24.8081C23.3185 25.8865 22.6211 27.0224 21.8734 27.8276C21.2839 28.4674 20.1264 29.3086 19.4075 29.6321C19.3068 29.6752 19.1487 29.7543 19.048 29.8047C18.7173 29.9772 17.7971 30.2504 17.1069 30.387C15.8488 30.6386 14.0946 30.5236 13.0521 30.121C12.858 30.0419 12.6783 29.9844 12.6423 29.9844C12.6064 29.9844 12.3044 29.855 11.9665 29.6968C11.3123 29.3805 10.6221 28.9491 10.2051 28.5897C9.53651 28.0073 8.64503 27.0296 8.47967 26.6989C8.42216 26.591 8.34307 26.4472 8.29275 26.3897C8.21367 26.2891 7.98361 25.8361 7.73917 25.3113C7.53787 24.8871 7.32938 24.1754 7.20716 23.5283C7.07056 22.8094 7.04899 21.0624 7.16402 20.5807C7.25748 20.2212 7.19278 20.1494 6.91958 20.3291C6.64639 20.5088 6.48103 20.6095 6.14313 20.7892C5.98497 20.8755 5.84118 20.9689 5.81961 20.9905C5.79804 21.0121 5.60393 21.1271 5.38825 21.2421C5.17257 21.35 4.84905 21.5297 4.6765 21.6376C4.10855 21.9826 3.84254 22.1336 3.54059 22.299L3.23145 22.4643V23.1905C3.23145 24.2401 3.51183 25.5486 4.00071 26.8211C4.19482 27.3243 4.72683 28.4171 4.80591 28.4746C4.83467 28.4962 4.94251 28.6615 5.05035 28.8485C5.74053 30.0491 7.22154 31.5229 8.69535 32.5007C9.16985 32.8098 10.7084 33.6006 11.0103 33.6869C11.1038 33.7085 11.341 33.7876 11.5351 33.8594C14.0514 34.7725 17.2435 34.7653 19.767 33.8523C20.7519 33.4928 21.744 33.0327 22.2257 32.7092C22.3336 32.6373 22.5205 32.5078 22.6427 32.4288C22.7577 32.3497 22.8871 32.285 22.9303 32.285C22.9662 32.285 23.0022 32.2562 23.0022 32.2275C23.0022 32.1915 23.1891 32.0405 23.412 31.8824C24.2819 31.2928 25.691 29.7256 26.3955 28.5825C26.6687 28.1439 27.3877 26.7348 27.3877 26.6413C27.3877 26.6126 27.438 26.4904 27.4955 26.3681C27.6537 26.0302 27.8478 25.3257 28.085 24.2329C28.272 23.3414 28.272 20.7461 28.0778 19.7755C27.8478 18.6036 27.4739 17.4893 26.9994 16.5475C26.5178 15.5985 26.4459 15.4691 26.3812 15.426C26.3452 15.4044 26.2661 15.2822 26.2014 15.1528C26.0145 14.7502 24.8498 13.3626 24.1525 12.7084C23.7858 12.3633 23.4623 12.0829 23.4335 12.0829C23.3976 12.0829 23.3113 12.1907 23.2394 12.313Z" fill="#4D4D4F"/>
<path d="M41.2989 17.0363C41.0617 17.0723 40.7525 17.1442 40.6159 17.2089C39.9401 17.5037 39.7532 17.6043 39.5447 17.7912C39.3865 17.935 39.365 17.9134 39.2571 17.4893L39.1709 17.1873H38.1715H37.165V22.0401V26.8929H38.4591H39.7532V23.9741C39.7532 21.163 39.7604 21.048 39.9042 20.7317C40.2277 20.0199 40.58 19.7252 41.3492 19.531C41.7303 19.4376 41.8956 19.4304 42.1616 19.4879C42.7799 19.6245 43.0531 19.8402 43.3551 20.4225C43.5276 20.746 43.5276 20.7532 43.5492 23.8159L43.5779 26.8929H44.8289H46.087L46.0655 23.6002C46.0367 20.4872 46.0295 20.2859 45.8857 19.8258C45.4544 18.467 44.7929 17.6978 43.6498 17.2376C43.1466 17.0292 42.061 16.9429 41.2989 17.0363Z" fill="#4D4D4F"/>
<path d="M55.1021 17.0363C54.0453 17.1801 52.8303 17.8919 52.1545 18.769C51.9748 18.999 51.831 19.2219 51.831 19.265C51.831 19.3082 51.8022 19.3441 51.7735 19.3441C51.6944 19.3441 51.299 20.2859 51.1839 20.746C50.9395 21.7166 51.033 23.0179 51.414 24.0172C51.6944 24.7505 52.3558 25.6276 52.9813 26.0949C53.1179 26.1956 53.2473 26.3034 53.2688 26.325C53.2904 26.3465 53.4701 26.4544 53.6643 26.555C54.6564 27.0799 56.008 27.2524 57.0433 26.972C57.5825 26.8282 58.2942 26.555 58.3733 26.4544C58.3949 26.4328 58.5386 26.3322 58.6968 26.2315C59.538 25.6923 60.1994 24.7649 60.5732 23.593C60.7242 23.1257 60.7458 22.91 60.7458 22.0329C60.7458 20.897 60.6236 20.3722 60.1562 19.4735C59.8974 18.9918 58.8478 17.8703 58.4811 17.6906C58.3661 17.633 58.2151 17.554 58.1576 17.5036C58.1001 17.4605 57.8197 17.3455 57.5393 17.2376C56.9642 17.0291 55.857 16.9429 55.1021 17.0363ZM56.6047 19.5598C57.1655 19.7395 57.6687 20.1853 57.9851 20.7892C58.172 21.1486 58.1864 21.2421 58.1936 22.0042C58.1936 22.7519 58.1792 22.8669 57.9994 23.2264C57.8197 23.6074 57.3164 24.2329 57.187 24.2329C57.1511 24.2329 57.072 24.2832 57.0001 24.3479C56.7772 24.5492 56.0296 24.6714 55.5335 24.5852C55.023 24.4917 54.793 24.3839 54.412 24.0388C53.7649 23.4564 53.427 22.3493 53.6283 21.4937C53.7937 20.782 54.3113 19.9193 54.5629 19.9193C54.6061 19.9193 54.6348 19.8905 54.6348 19.8546C54.6348 19.8042 55.0662 19.6101 55.4975 19.4663C55.7348 19.3873 56.1518 19.4232 56.6047 19.5598Z" fill="#4D4D4F"/>
<path d="M69.3659 17.0435C69.0999 17.0723 68.7908 17.1514 68.6685 17.2161C68.5463 17.2808 68.4025 17.3311 68.3522 17.3311C68.1365 17.3311 67.1516 18.0141 66.7346 18.4598C66.483 18.7187 66.2817 18.9559 66.2817 18.9847C66.2817 19.0206 66.2098 19.1356 66.1163 19.2507C65.9438 19.4663 65.7425 19.9121 65.5196 20.5663C65.3255 21.1271 65.3255 22.7734 65.5196 23.4421C66.0157 25.1747 67.1947 26.3969 68.9058 26.9361C69.5169 27.1302 70.9691 27.1302 71.5299 26.9361C73.773 26.1668 75.0743 24.3982 75.0886 22.112C75.0958 19.7971 73.8305 17.9422 71.76 17.2233C71.2064 17.0292 70.1136 16.9501 69.3659 17.0435ZM70.9619 19.5742C71.3286 19.6964 71.5011 19.8114 71.839 20.1493C72.0619 20.3794 72.2488 20.6095 72.2488 20.6598C72.2488 20.7029 72.3064 20.8395 72.3711 20.9617C72.4501 21.1055 72.5005 21.4147 72.522 21.9107C72.5508 22.5578 72.5292 22.6944 72.3854 23.061C72.0475 23.9022 71.494 24.3982 70.7031 24.5636C70.0848 24.693 69.445 24.5708 68.9345 24.2257C68.5104 23.9309 68.3594 23.7368 68.1222 23.1689C67.964 22.795 67.9352 22.6225 67.9352 22.0042C67.9352 21.35 67.9568 21.2421 68.1581 20.8179C68.4025 20.2931 69.0208 19.682 69.3947 19.5886C69.5241 19.5598 69.7038 19.5095 69.8045 19.4807C70.1424 19.3873 70.4946 19.416 70.9619 19.5742Z" fill="#4D4D4F"/>
<path d="M84.2126 17.0363C83.9754 17.0651 83.6734 17.1442 83.5368 17.2089C83.4074 17.2736 83.2636 17.3311 83.2277 17.3311C83.1917 17.3311 82.9832 17.4461 82.7676 17.5899C82.5591 17.7265 82.3578 17.82 82.3146 17.7984C82.2787 17.7768 82.2068 17.6259 82.1637 17.4677L82.0774 17.1801L81.0996 17.2017L80.1219 17.2233L80.1003 22.0545L80.0859 26.8929H81.3441H82.6022V24.0532C82.6022 21.2852 82.6094 21.2062 82.7676 20.8036C82.9832 20.2428 83.4577 19.7611 83.9682 19.5958C84.8381 19.3082 85.6793 19.5239 86.0962 20.1421C86.4413 20.6598 86.4845 21.1343 86.4845 24.1897V26.8929H87.7067H88.9288V23.6074C88.9288 20.4729 88.9217 20.2931 88.7779 19.8114C88.6413 19.3513 88.3177 18.6396 88.2099 18.5533C88.1883 18.5317 88.0949 18.4095 88.0014 18.2873C87.757 17.9278 87.0452 17.4174 86.5348 17.2233C86.01 17.0292 84.9603 16.9429 84.2126 17.0363Z" fill="#4D4D4F"/>
</svg>
