<svg width="535" height="219" viewBox="0 0 535 219" fill="none" xmlns="http://www.w3.org/2000/svg">
<path d="M163.499 74.5602V0.272095H174.081V31.2255H217.821V0.272095H228.403V74.5602H217.821V43.6068H174.081V74.5602H163.499Z" fill="white"/>
<path d="M232.772 74.5602V0.272095H243.266V74.5602H232.772Z" fill="white"/>
<path d="M115.945 159.165C113.769 159.165 111.771 158.546 109.948 157.307C108.126 156.069 106.685 154.384 105.627 152.252C104.569 150.119 104.04 147.781 104.04 145.236V98.8055C104.04 96.2605 104.569 93.9218 105.627 91.7894C106.685 89.6571 108.126 87.9719 109.948 86.7337C111.771 85.4956 113.769 84.8765 115.945 84.8765H167.357V97.3611H117.797C116.856 97.3611 116.092 97.705 115.504 98.3928C114.916 99.0119 114.622 99.8717 114.622 100.972V143.069C114.622 144.169 114.916 145.064 115.504 145.752C116.092 146.371 116.856 146.68 117.797 146.68H167.357V159.165H115.945Z" fill="white"/>
<path d="M182.823 159.268C180.648 159.268 178.649 158.649 176.827 157.411C175.004 156.173 173.564 154.487 172.506 152.355C171.447 150.223 170.918 147.884 170.918 145.339V98.9087C170.918 96.3637 171.447 94.025 172.506 91.8926C173.564 89.7603 175.004 88.075 176.827 86.8369C178.649 85.5988 180.648 84.9797 182.823 84.9797H222.507C224.682 84.9797 226.652 85.5988 228.416 86.8369C230.238 88.075 231.678 89.7603 232.737 91.8926C233.854 94.025 234.412 96.3637 234.412 98.9087V145.339C234.412 147.884 233.854 150.223 232.737 152.355C231.678 154.487 230.238 156.173 228.416 157.411C226.652 158.649 224.682 159.268 222.507 159.268H182.823ZM183.088 146.783H222.154C222.566 146.783 222.919 146.611 223.213 146.267C223.565 145.924 223.742 145.476 223.742 144.926V99.3214C223.742 98.7711 223.565 98.324 223.213 97.9801C222.919 97.6362 222.566 97.4642 222.154 97.4642H183.088C182.676 97.4642 182.294 97.6362 181.942 97.9801C181.648 98.324 181.501 98.7711 181.501 99.3214V144.926C181.501 145.476 181.648 145.924 181.942 146.267C182.294 146.611 182.676 146.783 183.088 146.783Z" fill="white"/>
<path d="M238.669 159.268V84.9797H290.257C292.433 84.9797 294.402 85.5988 296.166 86.8369C297.988 88.075 299.429 89.7603 300.487 91.8926C301.604 94.025 302.162 96.3637 302.162 98.9087V145.339C302.162 147.884 301.604 150.223 300.487 152.355C299.429 154.487 297.988 156.173 296.166 157.411C294.402 158.649 292.433 159.268 290.257 159.268H238.669ZM250.838 146.783H289.905C290.316 146.783 290.669 146.611 290.963 146.267C291.316 145.924 291.492 145.476 291.492 144.926V99.3214C291.492 98.7711 291.316 98.324 290.963 97.9801C290.669 97.6362 290.316 97.4642 289.905 97.4642H250.838C250.368 97.4642 249.956 97.6362 249.604 97.9801C249.31 98.324 249.163 98.7711 249.163 99.3214V144.926C249.163 145.476 249.31 145.924 249.604 146.267C249.956 146.611 250.368 146.783 250.838 146.783Z" fill="white"/>
<path fill-rule="evenodd" clip-rule="evenodd" d="M306.99 159.165V146.68H317.66H365.281V159.165H306.99ZM317.66 128.211H365.281V115.83H317.66H306.99V116.133V128.211H317.66ZM365.281 97.3611H317.66H306.99V84.8765H365.281V97.3611Z" fill="white"/>
<path fill-rule="evenodd" clip-rule="evenodd" d="M321.031 74.5602V62.0757H331.701H379.322V74.5602H321.031ZM379.322 43.6068H331.701H321.031V31.2255H331.701H379.322V43.6068ZM331.701 12.7566H379.322V0.272095H321.031V12.7566H331.701Z" fill="white"/>
<path fill-rule="evenodd" clip-rule="evenodd" d="M401.261 133.314L419.831 159.268H431.736V156.379L415.088 133.28L420.095 133.267C422.27 133.267 424.24 132.648 426.004 131.41C427.826 130.172 429.266 128.486 430.325 126.354C431.442 124.222 432 121.917 432 119.441V99.0119C432 96.4669 431.442 94.1625 430.325 92.099C429.266 89.9666 427.826 88.2814 426.004 87.0433C424.24 85.7364 422.27 85.0829 420.095 85.0829H368.506V97.4642H380.676H419.742C420.154 97.4642 420.507 97.6706 420.801 98.0833C421.153 98.4272 421.33 98.8399 421.33 99.3214V118.925C421.33 119.476 421.153 119.923 420.801 120.267C420.507 120.611 420.154 120.782 419.742 120.782H380.676H368.506V159.268H379.089V133.37L401.261 133.314Z" fill="white"/>
<path fill-rule="evenodd" clip-rule="evenodd" d="M281.137 48.6074L299.706 74.5608H311.611V71.6719L294.964 48.5726L299.971 48.56C302.146 48.56 304.115 47.9409 305.879 46.7028C307.702 45.4647 309.142 43.7794 310.2 41.6471C311.317 39.5147 311.876 37.2104 311.876 34.7341V14.3049C311.876 11.7598 311.317 9.45553 310.2 7.39197C309.142 5.25963 307.702 3.57439 305.879 2.33626C304.115 1.02934 302.146 0.375872 299.971 0.375872H248.382V12.7572H260.552H299.618C300.03 12.7572 300.382 12.9636 300.676 13.3763C301.029 13.7202 301.205 14.1329 301.205 14.6144V34.2183C301.205 34.7685 301.029 35.2156 300.676 35.5596C300.382 35.9035 300.03 36.0755 299.618 36.0755H260.552H248.382V74.5608H258.964V48.6632L281.137 48.6074Z" fill="white"/>
<path d="M10.2276 207.047L16.7554 185.162H18.9027L11.0865 210.173H9.50612L10.2276 207.047ZM3.59677 185.162L10.0902 207.047L10.8117 210.173H9.24845L1.44947 185.162H3.59677ZM24.3482 191.586V210.173H22.4414V191.586H24.3482ZM22.1494 186.244C22.1494 185.832 22.2582 185.494 22.4758 185.23C22.7048 184.956 23.0198 184.818 23.4206 184.818C23.81 184.818 24.1135 184.956 24.331 185.23C24.5601 185.494 24.6746 185.832 24.6746 186.244C24.6746 186.622 24.5601 186.942 24.331 187.206C24.1135 187.469 23.81 187.601 23.4206 187.601C23.0198 187.601 22.7048 187.469 22.4758 187.206C22.2582 186.942 22.1494 186.622 22.1494 186.244ZM39.7916 206.566V183.787H41.6984V210.173H39.9118L39.7916 206.566ZM29.0036 201.756V200.021C29.0036 198.463 29.141 197.129 29.4158 196.018C29.7021 194.896 30.1087 193.986 30.6355 193.287C31.1623 192.588 31.7979 192.073 32.5423 191.741C33.2981 191.409 34.1399 191.243 35.0675 191.243C35.9722 191.243 36.7624 191.415 37.4381 191.758C38.1253 192.09 38.7093 192.566 39.1903 193.184C39.6713 193.802 40.0607 194.541 40.3584 195.4C40.6562 196.247 40.8738 197.198 41.0112 198.252V203.8C40.8967 204.785 40.6906 205.69 40.3928 206.514C40.1065 207.339 39.7171 208.049 39.2247 208.644C38.7437 209.24 38.1539 209.704 37.4553 210.036C36.7567 210.368 35.9436 210.534 35.016 210.534C34.0998 210.534 33.2695 210.357 32.5251 210.002C31.7922 209.647 31.1623 209.108 30.6355 208.387C30.1087 207.665 29.7021 206.755 29.4158 205.655C29.141 204.556 29.0036 203.256 29.0036 201.756ZM30.9275 200.021V201.756C30.9275 202.947 31.0134 203.978 31.1852 204.848C31.3684 205.718 31.6433 206.44 32.0098 207.013C32.3877 207.574 32.8572 207.997 33.4184 208.284C33.9796 208.559 34.6438 208.696 35.4111 208.696C36.3845 208.696 37.1976 208.496 37.8504 208.095C38.5032 207.682 39.0243 207.144 39.4136 206.48C39.8145 205.804 40.1065 205.066 40.2897 204.264V197.908C40.1752 197.358 40.0034 196.803 39.7744 196.242C39.5568 195.669 39.2648 195.142 38.8983 194.661C38.5318 194.18 38.0623 193.797 37.4897 193.51C36.9285 193.213 36.2471 193.064 35.4454 193.064C34.6667 193.064 33.991 193.207 33.4184 193.493C32.8458 193.768 32.3762 194.192 32.0098 194.764C31.6433 195.337 31.3684 196.058 31.1852 196.929C31.0134 197.788 30.9275 198.818 30.9275 200.021ZM53.0017 210.534C51.971 210.534 51.0205 210.368 50.1501 210.036C49.2912 209.692 48.5468 209.177 47.9169 208.49C47.2985 207.791 46.8175 206.915 46.4739 205.862C46.1304 204.797 45.9586 203.542 45.9586 202.1V199.952C45.9586 198.418 46.1418 197.101 46.5083 196.001C46.8748 194.89 47.3672 193.986 47.9856 193.287C48.6155 192.577 49.3313 192.062 50.1329 191.741C50.9346 191.409 51.7821 191.243 52.6753 191.243C53.6946 191.243 54.5879 191.409 55.3552 191.741C56.1339 192.073 56.7867 192.577 57.3135 193.253C57.8403 193.928 58.2354 194.782 58.4988 195.812C58.7622 196.831 58.8939 198.04 58.8939 199.437V201.034H47.1095V199.248H56.9871V198.767C56.9642 197.553 56.7924 196.522 56.4717 195.675C56.1625 194.816 55.693 194.163 55.0631 193.716C54.4447 193.258 53.6545 193.029 52.6925 193.029C51.9825 193.029 51.3297 193.161 50.7342 193.424C50.1387 193.676 49.6233 194.077 49.1881 194.627C48.7644 195.177 48.438 195.892 48.209 196.774C47.9914 197.656 47.8826 198.715 47.8826 199.952V202.1C47.8826 203.233 48.0028 204.218 48.2433 205.054C48.4953 205.879 48.8503 206.566 49.3084 207.116C49.7665 207.654 50.3162 208.06 50.9575 208.335C51.5988 208.599 52.3089 208.73 53.0876 208.73C54.0496 208.73 54.8913 208.57 55.6128 208.249C56.3343 207.917 56.9756 207.419 57.5368 206.755L58.5503 208.026C58.2068 208.473 57.783 208.891 57.2791 209.28C56.7752 209.658 56.174 209.961 55.4754 210.191C54.7768 210.42 53.9523 210.534 53.0017 210.534ZM62.2609 201.842V199.918C62.2609 198.509 62.4212 197.267 62.7418 196.19C63.074 195.114 63.5378 194.209 64.1333 193.476C64.7403 192.732 65.4618 192.176 66.2978 191.81C67.1338 191.432 68.05 191.243 69.0463 191.243C70.0656 191.243 70.9875 191.432 71.812 191.81C72.648 192.176 73.3638 192.732 73.9593 193.476C74.5663 194.209 75.0358 195.114 75.3679 196.19C75.7001 197.267 75.8661 198.509 75.8661 199.918V201.842C75.8661 203.25 75.7001 204.499 75.3679 205.587C75.0358 206.663 74.5663 207.568 73.9593 208.301C73.3638 209.034 72.648 209.589 71.812 209.967C70.9875 210.345 70.0713 210.534 69.0635 210.534C68.0557 210.534 67.1338 210.345 66.2978 209.967C65.4732 209.589 64.7574 209.034 64.1505 208.301C63.5435 207.557 63.074 206.646 62.7418 205.57C62.4212 204.493 62.2609 203.25 62.2609 201.842ZM64.1848 199.918V201.842C64.1848 202.907 64.2879 203.863 64.494 204.711C64.7116 205.558 65.0323 206.28 65.456 206.875C65.8798 207.471 66.3894 207.929 66.9849 208.249C67.5919 208.57 68.2847 208.73 69.0635 208.73C69.888 208.73 70.6038 208.57 71.2108 208.249C71.8292 207.929 72.3388 207.471 72.7397 206.875C73.1519 206.28 73.4554 205.558 73.6501 204.711C73.8562 203.863 73.9593 202.907 73.9593 201.842V199.918C73.9593 198.876 73.8505 197.931 73.6329 197.083C73.4153 196.236 73.0889 195.514 72.6538 194.919C72.23 194.312 71.7147 193.848 71.1077 193.528C70.5007 193.195 69.8136 193.029 69.0463 193.029C68.2905 193.029 67.6091 193.195 67.0021 193.528C66.3951 193.848 65.8798 194.312 65.456 194.919C65.0437 195.514 64.7288 196.236 64.5112 197.083C64.2936 197.931 64.1848 198.876 64.1848 199.918ZM94.058 208.73C94.768 208.73 95.4323 208.599 96.0507 208.335C96.6806 208.072 97.1959 207.625 97.5967 206.995C97.9976 206.365 98.2266 205.501 98.2839 204.401H100.105C100.059 205.73 99.7555 206.852 99.1943 207.768C98.6332 208.673 97.9059 209.36 97.0127 209.83C96.1194 210.299 95.1345 210.534 94.058 210.534C92.9471 210.534 91.9737 210.351 91.1377 209.984C90.3017 209.618 89.6031 209.074 89.0419 208.352C88.4807 207.619 88.057 206.72 87.7707 205.655C87.4844 204.579 87.3413 203.336 87.3413 201.928V199.815C87.3413 198.418 87.4844 197.187 87.7707 196.121C88.057 195.045 88.4807 194.146 89.0419 193.424C89.6031 192.703 90.3017 192.159 91.1377 191.792C91.9737 191.426 92.9471 191.243 94.058 191.243C95.1918 191.243 96.2053 191.483 97.0986 191.964C97.9918 192.434 98.7019 193.155 99.2287 194.129C99.7669 195.102 100.059 196.345 100.105 197.856H98.2839C98.2381 196.7 98.0205 195.772 97.6311 195.074C97.2532 194.364 96.755 193.848 96.1366 193.528C95.5181 193.195 94.8253 193.029 94.058 193.029C93.1762 193.029 92.426 193.184 91.8076 193.493C91.2007 193.791 90.7082 194.232 90.3303 194.816C89.9524 195.4 89.6775 196.11 89.5057 196.946C89.3339 197.782 89.248 198.738 89.248 199.815V201.928C89.248 203.016 89.3339 203.983 89.5057 204.831C89.6775 205.678 89.9524 206.394 90.3303 206.978C90.7197 207.551 91.2178 207.986 91.8248 208.284C92.4432 208.581 93.1876 208.73 94.058 208.73ZM106.083 183.787V210.173H104.176V183.787H106.083ZM105.653 199.729L104.812 199.231C104.857 198.131 105.035 197.101 105.344 196.139C105.665 195.177 106.1 194.329 106.65 193.596C107.199 192.852 107.846 192.273 108.591 191.861C109.335 191.449 110.16 191.243 111.065 191.243C111.832 191.243 112.525 191.369 113.143 191.621C113.762 191.873 114.283 192.268 114.706 192.806C115.142 193.344 115.474 194.049 115.703 194.919C115.932 195.789 116.046 196.837 116.046 198.063V210.173H114.139V198.045C114.139 196.774 113.996 195.778 113.71 195.056C113.424 194.335 113.011 193.825 112.473 193.528C111.946 193.218 111.311 193.064 110.566 193.064C109.776 193.064 109.078 193.276 108.471 193.699C107.875 194.123 107.365 194.673 106.942 195.348C106.529 196.024 106.215 196.751 105.997 197.53C105.779 198.297 105.665 199.03 105.653 199.729ZM130.562 206.841V196.723C130.562 195.852 130.413 195.148 130.115 194.61C129.818 194.06 129.382 193.659 128.81 193.407C128.237 193.155 127.533 193.029 126.697 193.029C125.907 193.029 125.202 193.19 124.584 193.51C123.977 193.82 123.502 194.255 123.158 194.816C122.826 195.366 122.66 196.001 122.66 196.723L120.753 196.706C120.753 195.995 120.896 195.314 121.183 194.661C121.469 193.997 121.875 193.413 122.402 192.909C122.929 192.394 123.559 191.987 124.292 191.689C125.036 191.392 125.861 191.243 126.766 191.243C127.876 191.243 128.861 191.42 129.72 191.775C130.579 192.13 131.249 192.714 131.73 193.528C132.223 194.341 132.469 195.417 132.469 196.757V206.257C132.469 206.909 132.509 207.579 132.589 208.267C132.681 208.954 132.801 209.515 132.95 209.95V210.173H130.923C130.797 209.773 130.705 209.263 130.648 208.644C130.591 208.015 130.562 207.413 130.562 206.841ZM130.957 199.317L131.009 200.949H127.71C126.817 200.949 126.033 201.046 125.357 201.241C124.681 201.435 124.114 201.716 123.656 202.082C123.21 202.449 122.872 202.884 122.643 203.388C122.414 203.892 122.299 204.464 122.299 205.106C122.299 205.93 122.431 206.606 122.694 207.133C122.958 207.648 123.341 208.032 123.845 208.284C124.361 208.524 124.973 208.644 125.683 208.644C126.622 208.644 127.447 208.461 128.157 208.095C128.879 207.717 129.468 207.219 129.926 206.6C130.384 205.97 130.682 205.306 130.82 204.608L131.335 205.776C131.221 206.302 131.009 206.841 130.699 207.39C130.39 207.94 129.989 208.456 129.497 208.936C129.004 209.406 128.42 209.79 127.745 210.087C127.069 210.385 126.307 210.534 125.46 210.534C124.441 210.534 123.548 210.339 122.78 209.95C122.024 209.561 121.435 208.971 121.011 208.181C120.599 207.39 120.392 206.417 120.392 205.26C120.392 204.401 120.536 203.611 120.822 202.89C121.12 202.168 121.561 201.544 122.145 201.017C122.729 200.479 123.462 200.061 124.343 199.763C125.225 199.465 126.25 199.317 127.418 199.317H130.957ZM143.738 191.586V193.304H135.801V191.586H143.738ZM138.653 186.828H140.577V205.638C140.577 206.497 140.669 207.144 140.852 207.579C141.035 208.015 141.276 208.307 141.573 208.456C141.871 208.593 142.192 208.662 142.535 208.662C142.799 208.662 143.045 208.644 143.274 208.61C143.514 208.576 143.726 208.53 143.91 208.473L143.978 210.225C143.761 210.316 143.48 210.385 143.137 210.431C142.804 210.488 142.449 210.517 142.071 210.517C141.43 210.517 140.852 210.368 140.336 210.07C139.821 209.761 139.409 209.251 139.1 208.541C138.802 207.831 138.653 206.858 138.653 205.621V186.828ZM159.353 196.671L162.686 193.665C163.292 193.127 163.791 192.548 164.18 191.93C164.569 191.312 164.764 190.579 164.764 189.731C164.764 188.918 164.518 188.191 164.025 187.549C163.544 186.908 162.857 186.587 161.964 186.587C161.311 186.587 160.762 186.765 160.315 187.12C159.88 187.475 159.548 187.945 159.319 188.529C159.09 189.113 158.975 189.754 158.975 190.453C158.975 191.002 159.067 191.575 159.25 192.17C159.445 192.754 159.719 193.367 160.074 194.009C160.441 194.638 160.87 195.303 161.363 196.001L171.532 210.173H169.248L160.641 198.148C159.931 197.164 159.301 196.253 158.752 195.417C158.213 194.581 157.795 193.768 157.498 192.978C157.2 192.188 157.051 191.369 157.051 190.521C157.051 189.342 157.251 188.328 157.652 187.481C158.053 186.622 158.626 185.963 159.37 185.505C160.114 185.036 160.979 184.801 161.964 184.801C162.926 184.801 163.751 185.03 164.438 185.488C165.125 185.935 165.652 186.53 166.018 187.275C166.385 188.019 166.568 188.844 166.568 189.748C166.568 190.493 166.43 191.186 166.156 191.827C165.892 192.457 165.543 193.035 165.108 193.562C164.684 194.089 164.226 194.564 163.733 194.988L159.834 198.509C159.032 199.299 158.442 200.021 158.065 200.674C157.687 201.326 157.435 201.916 157.309 202.443C157.194 202.958 157.137 203.399 157.137 203.766C157.137 204.648 157.303 205.466 157.635 206.222C157.967 206.967 158.477 207.568 159.164 208.026C159.863 208.484 160.739 208.713 161.792 208.713C162.674 208.713 163.527 208.484 164.352 208.026C165.188 207.557 165.932 206.892 166.585 206.033C167.238 205.163 167.753 204.132 168.131 202.941C168.52 201.739 168.715 200.405 168.715 198.939H170.467C170.467 200.027 170.376 201.052 170.192 202.014C170.021 202.964 169.757 203.846 169.402 204.659C169.047 205.472 168.612 206.217 168.097 206.892C168.017 206.995 167.959 207.081 167.925 207.15C167.902 207.219 167.845 207.305 167.753 207.408C166.997 208.37 166.093 209.131 165.039 209.692C163.997 210.242 162.915 210.517 161.792 210.517C160.429 210.517 159.256 210.236 158.271 209.675C157.297 209.114 156.541 208.33 156.003 207.322C155.476 206.302 155.213 205.123 155.213 203.783C155.213 202.775 155.39 201.865 155.745 201.052C156.112 200.239 156.604 199.477 157.223 198.767C157.853 198.057 158.563 197.358 159.353 196.671ZM183.128 185.162H189.982C191.459 185.162 192.73 185.448 193.796 186.021C194.872 186.582 195.697 187.412 196.269 188.511C196.853 189.599 197.145 190.939 197.145 192.531C197.145 193.711 196.939 194.782 196.527 195.744C196.115 196.706 195.542 197.507 194.809 198.148C194.088 198.79 193.24 199.231 192.267 199.471L191.614 199.763H184.468L184.433 197.925H190.308C191.396 197.925 192.301 197.673 193.023 197.169C193.744 196.654 194.282 195.99 194.637 195.177C195.004 194.352 195.187 193.47 195.187 192.531C195.187 191.397 194.987 190.418 194.586 189.594C194.196 188.769 193.612 188.134 192.834 187.687C192.066 187.229 191.116 187 189.982 187H185.103V210.173H183.128V185.162ZM195.96 210.173L190.583 198.973L192.679 198.956L198.056 209.95V210.173H195.96ZM208.225 210.534C207.195 210.534 206.244 210.368 205.374 210.036C204.515 209.692 203.77 209.177 203.141 208.49C202.522 207.791 202.041 206.915 201.698 205.862C201.354 204.797 201.182 203.542 201.182 202.1V199.952C201.182 198.418 201.365 197.101 201.732 196.001C202.098 194.89 202.591 193.986 203.209 193.287C203.839 192.577 204.555 192.062 205.357 191.741C206.158 191.409 207.006 191.243 207.899 191.243C208.918 191.243 209.811 191.409 210.579 191.741C211.358 192.073 212.01 192.577 212.537 193.253C213.064 193.928 213.459 194.782 213.722 195.812C213.986 196.831 214.118 198.04 214.118 199.437V201.034H202.333V199.248H212.211V198.767C212.188 197.553 212.016 196.522 211.695 195.675C211.386 194.816 210.917 194.163 210.287 193.716C209.668 193.258 208.878 193.029 207.916 193.029C207.206 193.029 206.553 193.161 205.958 193.424C205.362 193.676 204.847 194.077 204.412 194.627C203.988 195.177 203.662 195.892 203.433 196.774C203.215 197.656 203.106 198.715 203.106 199.952V202.1C203.106 203.233 203.226 204.218 203.467 205.054C203.719 205.879 204.074 206.566 204.532 207.116C204.99 207.654 205.54 208.06 206.181 208.335C206.822 208.599 207.532 208.73 208.311 208.73C209.273 208.73 210.115 208.57 210.836 208.249C211.558 207.917 212.199 207.419 212.76 206.755L213.774 208.026C213.43 208.473 213.007 208.891 212.503 209.28C211.999 209.658 211.398 209.961 210.699 210.191C210 210.42 209.176 210.534 208.225 210.534ZM220.044 195.4V210.173H218.12V191.586H219.958L220.044 195.4ZM219.683 199.729L218.773 199.231C218.819 198.131 218.985 197.101 219.271 196.139C219.569 195.177 219.975 194.329 220.491 193.596C221.018 192.852 221.659 192.273 222.415 191.861C223.171 191.449 224.029 191.243 224.991 191.243C225.747 191.243 226.429 191.369 227.036 191.621C227.654 191.861 228.187 192.245 228.633 192.772C229.08 193.287 229.423 193.963 229.664 194.799C229.904 195.623 230.025 196.625 230.025 197.805V210.173H228.118V197.874C228.118 196.648 227.958 195.686 227.637 194.988C227.328 194.289 226.893 193.797 226.331 193.51C225.782 193.213 225.135 193.064 224.39 193.064C223.531 193.064 222.804 193.276 222.209 193.699C221.613 194.123 221.132 194.673 220.766 195.348C220.411 196.024 220.147 196.751 219.975 197.53C219.804 198.297 219.706 199.03 219.683 199.729ZM230.008 198.114L228.719 198.183C228.765 197.278 228.937 196.413 229.234 195.589C229.532 194.753 229.945 194.014 230.471 193.373C230.998 192.72 231.628 192.205 232.361 191.827C233.105 191.437 233.947 191.243 234.886 191.243C235.699 191.243 236.426 191.374 237.068 191.638C237.709 191.89 238.247 192.291 238.683 192.84C239.129 193.39 239.467 194.094 239.696 194.953C239.925 195.812 240.04 196.843 240.04 198.045V210.173H238.116V198.028C238.116 196.734 237.955 195.726 237.635 195.005C237.325 194.283 236.89 193.779 236.329 193.493C235.779 193.195 235.138 193.052 234.405 193.064C233.684 193.064 233.048 193.224 232.498 193.545C231.96 193.865 231.508 194.278 231.141 194.782C230.786 195.274 230.511 195.818 230.317 196.413C230.133 196.998 230.03 197.564 230.008 198.114ZM244.317 201.842V199.918C244.317 198.509 244.477 197.267 244.798 196.19C245.13 195.114 245.594 194.209 246.19 193.476C246.796 192.732 247.518 192.176 248.354 191.81C249.19 191.432 250.106 191.243 251.103 191.243C252.122 191.243 253.044 191.432 253.868 191.81C254.704 192.176 255.42 192.732 256.016 193.476C256.623 194.209 257.092 195.114 257.424 196.19C257.756 197.267 257.922 198.509 257.922 199.918V201.842C257.922 203.25 257.756 204.499 257.424 205.587C257.092 206.663 256.623 207.568 256.016 208.301C255.42 209.034 254.704 209.589 253.868 209.967C253.044 210.345 252.127 210.534 251.12 210.534C250.112 210.534 249.19 210.345 248.354 209.967C247.529 209.589 246.814 209.034 246.207 208.301C245.6 207.557 245.13 206.646 244.798 205.57C244.477 204.493 244.317 203.25 244.317 201.842ZM246.241 199.918V201.842C246.241 202.907 246.344 203.863 246.55 204.711C246.768 205.558 247.089 206.28 247.512 206.875C247.936 207.471 248.446 207.929 249.041 208.249C249.648 208.57 250.341 208.73 251.12 208.73C251.944 208.73 252.66 208.57 253.267 208.249C253.885 207.929 254.395 207.471 254.796 206.875C255.208 206.28 255.512 205.558 255.706 204.711C255.912 203.863 256.016 202.907 256.016 201.842V199.918C256.016 198.876 255.907 197.931 255.689 197.083C255.472 196.236 255.145 195.514 254.71 194.919C254.286 194.312 253.771 193.848 253.164 193.528C252.557 193.195 251.87 193.029 251.103 193.029C250.347 193.029 249.665 193.195 249.058 193.528C248.451 193.848 247.936 194.312 247.512 194.919C247.1 195.514 246.785 196.236 246.567 197.083C246.35 197.931 246.241 198.876 246.241 199.918ZM268.35 191.586V193.304H260.413V191.586H268.35ZM263.265 186.828H265.189V205.638C265.189 206.497 265.28 207.144 265.464 207.579C265.647 208.015 265.887 208.307 266.185 208.456C266.483 208.593 266.804 208.662 267.147 208.662C267.411 208.662 267.657 208.644 267.886 208.61C268.126 208.576 268.338 208.53 268.521 208.473L268.59 210.225C268.373 210.316 268.092 210.385 267.748 210.431C267.416 210.488 267.061 210.517 266.683 210.517C266.042 210.517 265.464 210.368 264.948 210.07C264.433 209.761 264.021 209.251 263.711 208.541C263.414 207.831 263.265 206.858 263.265 205.621V186.828ZM278.691 210.534C277.66 210.534 276.71 210.368 275.839 210.036C274.98 209.692 274.236 209.177 273.606 208.49C272.988 207.791 272.507 206.915 272.163 205.862C271.82 204.797 271.648 203.542 271.648 202.1V199.952C271.648 198.418 271.831 197.101 272.198 196.001C272.564 194.89 273.056 193.986 273.675 193.287C274.305 192.577 275.021 192.062 275.822 191.741C276.624 191.409 277.471 191.243 278.365 191.243C279.384 191.243 280.277 191.409 281.044 191.741C281.823 192.073 282.476 192.577 283.003 193.253C283.53 193.928 283.925 194.782 284.188 195.812C284.451 196.831 284.583 198.04 284.583 199.437V201.034H272.799V199.248H282.676V198.767C282.653 197.553 282.482 196.522 282.161 195.675C281.852 194.816 281.382 194.163 280.752 193.716C280.134 193.258 279.344 193.029 278.382 193.029C277.672 193.029 277.019 193.161 276.423 193.424C275.828 193.676 275.313 194.077 274.877 194.627C274.454 195.177 274.127 195.892 273.898 196.774C273.681 197.656 273.572 198.715 273.572 199.952V202.1C273.572 203.233 273.692 204.218 273.933 205.054C274.185 205.879 274.54 206.566 274.998 207.116C275.456 207.654 276.005 208.06 276.647 208.335C277.288 208.599 277.998 208.73 278.777 208.73C279.739 208.73 280.581 208.57 281.302 208.249C282.024 207.917 282.665 207.419 283.226 206.755L284.24 208.026C283.896 208.473 283.472 208.891 282.968 209.28C282.464 209.658 281.863 209.961 281.165 210.191C280.466 210.42 279.642 210.534 278.691 210.534ZM310.024 202.357H312C311.885 204.224 311.513 205.764 310.883 206.978C310.253 208.181 309.377 209.074 308.255 209.658C307.144 210.242 305.798 210.534 304.218 210.534C303.016 210.534 301.933 210.299 300.971 209.83C300.009 209.36 299.185 208.679 298.498 207.786C297.822 206.892 297.301 205.816 296.934 204.556C296.579 203.285 296.402 201.853 296.402 200.261V194.902C296.402 193.333 296.579 191.93 296.934 190.693C297.301 189.445 297.828 188.385 298.515 187.515C299.213 186.633 300.049 185.963 301.023 185.505C302.008 185.047 303.124 184.818 304.373 184.818C305.884 184.818 307.184 185.104 308.272 185.677C309.372 186.25 310.236 187.137 310.866 188.34C311.507 189.542 311.885 191.094 312 192.995H310.024C309.921 191.46 309.646 190.229 309.2 189.302C308.753 188.374 308.129 187.704 307.327 187.292C306.537 186.868 305.552 186.656 304.373 186.656C303.399 186.656 302.54 186.845 301.796 187.223C301.063 187.59 300.439 188.128 299.923 188.838C299.42 189.536 299.036 190.395 298.772 191.415C298.509 192.422 298.377 193.573 298.377 194.867V200.261C298.377 201.533 298.503 202.689 298.755 203.731C299.007 204.762 299.374 205.65 299.855 206.394C300.347 207.138 300.954 207.711 301.676 208.112C302.409 208.501 303.256 208.696 304.218 208.696C305.455 208.696 306.48 208.501 307.293 208.112C308.106 207.723 308.736 207.07 309.183 206.154C309.629 205.226 309.91 203.961 310.024 202.357ZM315.779 201.842V199.918C315.779 198.509 315.939 197.267 316.26 196.19C316.592 195.114 317.056 194.209 317.651 193.476C318.258 192.732 318.98 192.176 319.816 191.81C320.652 191.432 321.568 191.243 322.564 191.243C323.584 191.243 324.506 191.432 325.33 191.81C326.166 192.176 326.882 192.732 327.477 193.476C328.084 194.209 328.554 195.114 328.886 196.19C329.218 197.267 329.384 198.509 329.384 199.918V201.842C329.384 203.25 329.218 204.499 328.886 205.587C328.554 206.663 328.084 207.568 327.477 208.301C326.882 209.034 326.166 209.589 325.33 209.967C324.506 210.345 323.589 210.534 322.582 210.534C321.574 210.534 320.652 210.345 319.816 209.967C318.991 209.589 318.276 209.034 317.669 208.301C317.062 207.557 316.592 206.646 316.26 205.57C315.939 204.493 315.779 203.25 315.779 201.842ZM317.703 199.918V201.842C317.703 202.907 317.806 203.863 318.012 204.711C318.23 205.558 318.55 206.28 318.974 206.875C319.398 207.471 319.908 207.929 320.503 208.249C321.11 208.57 321.803 208.73 322.582 208.73C323.406 208.73 324.122 208.57 324.729 208.249C325.347 207.929 325.857 207.471 326.258 206.875C326.67 206.28 326.974 205.558 327.168 204.711C327.374 203.863 327.477 202.907 327.477 201.842V199.918C327.477 198.876 327.369 197.931 327.151 197.083C326.934 196.236 326.607 195.514 326.172 194.919C325.748 194.312 325.233 193.848 324.626 193.528C324.019 193.195 323.332 193.029 322.564 193.029C321.809 193.029 321.127 193.195 320.52 193.528C319.913 193.848 319.398 194.312 318.974 194.919C318.562 195.514 318.247 196.236 318.029 197.083C317.812 197.931 317.703 198.876 317.703 199.918ZM343.883 206.566V183.787H345.79V210.173H344.003L343.883 206.566ZM333.095 201.756V200.021C333.095 198.463 333.232 197.129 333.507 196.018C333.793 194.896 334.2 193.986 334.727 193.287C335.254 192.588 335.889 192.073 336.634 191.741C337.389 191.409 338.231 191.243 339.159 191.243C340.064 191.243 340.854 191.415 341.529 191.758C342.217 192.09 342.801 192.566 343.282 193.184C343.763 193.802 344.152 194.541 344.45 195.4C344.747 196.247 344.965 197.198 345.102 198.252V203.8C344.988 204.785 344.782 205.69 344.484 206.514C344.198 207.339 343.808 208.049 343.316 208.644C342.835 209.24 342.245 209.704 341.547 210.036C340.848 210.368 340.035 210.534 339.107 210.534C338.191 210.534 337.361 210.357 336.616 210.002C335.883 209.647 335.254 209.108 334.727 208.387C334.2 207.665 333.793 206.755 333.507 205.655C333.232 204.556 333.095 203.256 333.095 201.756ZM335.019 200.021V201.756C335.019 202.947 335.105 203.978 335.276 204.848C335.46 205.718 335.735 206.44 336.101 207.013C336.479 207.574 336.949 207.997 337.51 208.284C338.071 208.559 338.735 208.696 339.502 208.696C340.476 208.696 341.289 208.496 341.942 208.095C342.594 207.682 343.116 207.144 343.505 206.48C343.906 205.804 344.198 205.066 344.381 204.264V197.908C344.266 197.358 344.095 196.803 343.866 196.242C343.648 195.669 343.356 195.142 342.99 194.661C342.623 194.18 342.154 193.797 341.581 193.51C341.02 193.213 340.338 193.064 339.537 193.064C338.758 193.064 338.082 193.207 337.51 193.493C336.937 193.768 336.468 194.192 336.101 194.764C335.735 195.337 335.46 196.058 335.276 196.929C335.105 197.788 335.019 198.818 335.019 200.021ZM357.093 210.534C356.062 210.534 355.112 210.368 354.241 210.036C353.382 209.692 352.638 209.177 352.008 208.49C351.39 207.791 350.909 206.915 350.565 205.862C350.222 204.797 350.05 203.542 350.05 202.1V199.952C350.05 198.418 350.233 197.101 350.6 196.001C350.966 194.89 351.459 193.986 352.077 193.287C352.707 192.577 353.423 192.062 354.224 191.741C355.026 191.409 355.873 191.243 356.767 191.243C357.786 191.243 358.679 191.409 359.446 191.741C360.225 192.073 360.878 192.577 361.405 193.253C361.932 193.928 362.327 194.782 362.59 195.812C362.853 196.831 362.985 198.04 362.985 199.437V201.034H351.201V199.248H361.078V198.767C361.055 197.553 360.884 196.522 360.563 195.675C360.254 194.816 359.784 194.163 359.154 193.716C358.536 193.258 357.746 193.029 356.784 193.029C356.074 193.029 355.421 193.161 354.825 193.424C354.23 193.676 353.715 194.077 353.279 194.627C352.856 195.177 352.529 195.892 352.3 196.774C352.083 197.656 351.974 198.715 351.974 199.952V202.1C351.974 203.233 352.094 204.218 352.335 205.054C352.587 205.879 352.942 206.566 353.4 207.116C353.858 207.654 354.407 208.06 355.049 208.335C355.69 208.599 356.4 208.73 357.179 208.73C358.141 208.73 358.983 208.57 359.704 208.249C360.426 207.917 361.067 207.419 361.628 206.755L362.642 208.026C362.298 208.473 361.874 208.891 361.37 209.28C360.867 209.658 360.265 209.961 359.567 210.191C358.868 210.42 358.044 210.534 357.093 210.534ZM368.98 194.644V210.173H367.074V191.586H368.929L368.98 194.644ZM374.392 191.466L374.34 193.373C374.134 193.327 373.939 193.298 373.756 193.287C373.573 193.264 373.372 193.253 373.155 193.253C372.433 193.253 371.803 193.413 371.265 193.734C370.727 194.054 370.269 194.507 369.891 195.091C369.524 195.663 369.238 196.333 369.032 197.101C368.837 197.856 368.723 198.675 368.688 199.557L368.018 199.849C368.018 198.647 368.121 197.524 368.328 196.482C368.534 195.44 368.849 194.524 369.272 193.734C369.708 192.943 370.252 192.331 370.904 191.896C371.569 191.46 372.347 191.243 373.241 191.243C373.447 191.243 373.659 191.266 373.876 191.312C374.105 191.346 374.277 191.397 374.392 191.466ZM401.568 194.97V200.382C401.568 202.019 401.379 203.474 401.001 204.745C400.634 206.005 400.096 207.064 399.386 207.923C398.688 208.782 397.84 209.435 396.844 209.881C395.859 210.316 394.742 210.534 393.494 210.534C392.269 210.534 391.158 210.316 390.161 209.881C389.165 209.435 388.312 208.782 387.602 207.923C386.892 207.064 386.342 206.005 385.953 204.745C385.575 203.474 385.386 202.019 385.386 200.382V194.97C385.386 193.321 385.575 191.861 385.953 190.59C386.331 189.319 386.869 188.259 387.567 187.412C388.277 186.565 389.131 185.923 390.127 185.488C391.123 185.041 392.234 184.818 393.46 184.818C394.719 184.818 395.847 185.041 396.844 185.488C397.84 185.923 398.688 186.565 399.386 187.412C400.096 188.259 400.634 189.319 401.001 190.59C401.379 191.861 401.568 193.321 401.568 194.97ZM399.609 200.382V194.936C399.609 193.573 399.472 192.377 399.197 191.346C398.934 190.315 398.544 189.456 398.029 188.769C397.514 188.082 396.872 187.567 396.105 187.223C395.338 186.879 394.456 186.708 393.46 186.708C392.498 186.708 391.633 186.879 390.866 187.223C390.11 187.567 389.468 188.088 388.942 188.786C388.426 189.473 388.031 190.332 387.756 191.363C387.481 192.382 387.344 193.573 387.344 194.936V200.382C387.344 201.756 387.481 202.958 387.756 203.989C388.043 205.008 388.449 205.867 388.976 206.566C389.503 207.253 390.144 207.768 390.9 208.112C391.667 208.456 392.532 208.627 393.494 208.627C394.49 208.627 395.366 208.456 396.122 208.112C396.89 207.768 397.531 207.253 398.046 206.566C398.562 205.867 398.951 205.008 399.214 203.989C399.478 202.958 399.609 201.756 399.609 200.382ZM408.319 195.555V210.173H406.412V191.586H408.233L408.319 195.555ZM407.889 199.729L407.048 199.231C407.093 198.131 407.271 197.101 407.58 196.139C407.901 195.177 408.336 194.329 408.886 193.596C409.435 192.852 410.082 192.273 410.827 191.861C411.571 191.449 412.396 191.243 413.301 191.243C414.068 191.243 414.761 191.369 415.379 191.621C415.998 191.873 416.519 192.268 416.942 192.806C417.378 193.344 417.71 194.049 417.939 194.919C418.168 195.789 418.282 196.837 418.282 198.063V210.173H416.376V198.045C416.376 196.774 416.232 195.778 415.946 195.056C415.66 194.335 415.247 193.825 414.709 193.528C414.182 193.218 413.547 193.064 412.802 193.064C412.012 193.064 411.314 193.276 410.707 193.699C410.111 194.123 409.602 194.673 409.178 195.348C408.765 196.024 408.451 196.751 408.233 197.53C408.015 198.297 407.901 199.03 407.889 199.729ZM429.534 210.173H424.844L424.862 208.335H429.534C431.034 208.335 432.311 208.02 433.365 207.39C434.419 206.761 435.22 205.839 435.77 204.625C436.331 203.411 436.612 201.928 436.612 200.176V195.108C436.612 193.779 436.451 192.611 436.131 191.604C435.821 190.584 435.363 189.737 434.756 189.061C434.161 188.374 433.434 187.859 432.575 187.515C431.716 187.172 430.748 187 429.672 187H424.741V185.162H429.672C431 185.162 432.203 185.379 433.279 185.814C434.367 186.25 435.306 186.891 436.096 187.738C436.886 188.586 437.493 189.634 437.917 190.882C438.341 192.119 438.553 193.539 438.553 195.142V200.176C438.553 201.79 438.341 203.222 437.917 204.47C437.493 205.707 436.886 206.749 436.096 207.597C435.306 208.444 434.356 209.085 433.245 209.521C432.145 209.956 430.908 210.173 429.534 210.173ZM425.772 185.162V210.173H423.797V185.162H425.772ZM449.581 210.534C448.551 210.534 447.6 210.368 446.73 210.036C445.871 209.692 445.126 209.177 444.496 208.49C443.878 207.791 443.397 206.915 443.053 205.862C442.71 204.797 442.538 203.542 442.538 202.1V199.952C442.538 198.418 442.721 197.101 443.088 196.001C443.454 194.89 443.947 193.986 444.565 193.287C445.195 192.577 445.911 192.062 446.712 191.741C447.514 191.409 448.362 191.243 449.255 191.243C450.274 191.243 451.167 191.409 451.935 191.741C452.713 192.073 453.366 192.577 453.893 193.253C454.42 193.928 454.815 194.782 455.078 195.812C455.342 196.831 455.473 198.04 455.473 199.437V201.034H443.689V199.248H453.567V198.767C453.544 197.553 453.372 196.522 453.051 195.675C452.742 194.816 452.273 194.163 451.643 193.716C451.024 193.258 450.234 193.029 449.272 193.029C448.562 193.029 447.909 193.161 447.314 193.424C446.718 193.676 446.203 194.077 445.768 194.627C445.344 195.177 445.018 195.892 444.788 196.774C444.571 197.656 444.462 198.715 444.462 199.952V202.1C444.462 203.233 444.582 204.218 444.823 205.054C445.075 205.879 445.43 206.566 445.888 207.116C446.346 207.654 446.896 208.06 447.537 208.335C448.178 208.599 448.888 208.73 449.667 208.73C450.629 208.73 451.471 208.57 452.192 208.249C452.914 207.917 453.555 207.419 454.116 206.755L455.13 208.026C454.786 208.473 454.363 208.891 453.859 209.28C453.355 209.658 452.754 209.961 452.055 210.191C451.356 210.42 450.532 210.534 449.581 210.534ZM461.4 195.4V210.173H459.476V191.586H461.314L461.4 195.4ZM461.039 199.729L460.129 199.231C460.175 198.131 460.341 197.101 460.627 196.139C460.925 195.177 461.331 194.329 461.847 193.596C462.373 192.852 463.015 192.273 463.771 191.861C464.526 191.449 465.385 191.243 466.347 191.243C467.103 191.243 467.785 191.369 468.392 191.621C469.01 191.861 469.543 192.245 469.989 192.772C470.436 193.287 470.779 193.963 471.02 194.799C471.26 195.623 471.381 196.625 471.381 197.805V210.173H469.474V197.874C469.474 196.648 469.313 195.686 468.993 194.988C468.684 194.289 468.248 193.797 467.687 193.51C467.138 193.213 466.49 193.064 465.746 193.064C464.887 193.064 464.16 193.276 463.564 193.699C462.969 194.123 462.488 194.673 462.121 195.348C461.766 196.024 461.503 196.751 461.331 197.53C461.159 198.297 461.062 199.03 461.039 199.729ZM471.363 198.114L470.075 198.183C470.121 197.278 470.293 196.413 470.59 195.589C470.888 194.753 471.3 194.014 471.827 193.373C472.354 192.72 472.984 192.205 473.717 191.827C474.461 191.437 475.303 191.243 476.242 191.243C477.055 191.243 477.782 191.374 478.424 191.638C479.065 191.89 479.603 192.291 480.038 192.84C480.485 193.39 480.823 194.094 481.052 194.953C481.281 195.812 481.396 196.843 481.396 198.045V210.173H479.472V198.028C479.472 196.734 479.311 195.726 478.991 195.005C478.681 194.283 478.246 193.779 477.685 193.493C477.135 193.195 476.494 193.052 475.761 193.064C475.04 193.064 474.404 193.224 473.854 193.545C473.316 193.865 472.864 194.278 472.497 194.782C472.142 195.274 471.867 195.818 471.673 196.413C471.489 196.998 471.386 197.564 471.363 198.114ZM495.843 206.841V196.723C495.843 195.852 495.694 195.148 495.396 194.61C495.098 194.06 494.663 193.659 494.09 193.407C493.518 193.155 492.813 193.029 491.977 193.029C491.187 193.029 490.483 193.19 489.865 193.51C489.258 193.82 488.782 194.255 488.439 194.816C488.107 195.366 487.941 196.001 487.941 196.723L486.034 196.706C486.034 195.995 486.177 195.314 486.463 194.661C486.749 193.997 487.156 193.413 487.683 192.909C488.21 192.394 488.84 191.987 489.572 191.689C490.317 191.392 491.141 191.243 492.046 191.243C493.157 191.243 494.142 191.42 495.001 191.775C495.86 192.13 496.53 192.714 497.011 193.528C497.503 194.341 497.749 195.417 497.749 196.757V206.257C497.749 206.909 497.789 207.579 497.87 208.267C497.961 208.954 498.081 209.515 498.23 209.95V210.173H496.203C496.077 209.773 495.986 209.263 495.928 208.644C495.871 208.015 495.843 207.413 495.843 206.841ZM496.238 199.317L496.289 200.949H492.991C492.098 200.949 491.313 201.046 490.638 201.241C489.962 201.435 489.395 201.716 488.937 202.082C488.49 202.449 488.152 202.884 487.923 203.388C487.694 203.892 487.58 204.464 487.58 205.106C487.58 205.93 487.711 206.606 487.975 207.133C488.238 207.648 488.622 208.032 489.126 208.284C489.641 208.524 490.254 208.644 490.964 208.644C491.903 208.644 492.728 208.461 493.438 208.095C494.159 207.717 494.749 207.219 495.207 206.6C495.665 205.97 495.963 205.306 496.1 204.608L496.616 205.776C496.501 206.302 496.289 206.841 495.98 207.39C495.671 207.94 495.27 208.456 494.778 208.936C494.285 209.406 493.701 209.79 493.025 210.087C492.35 210.385 491.588 210.534 490.741 210.534C489.721 210.534 488.828 210.339 488.061 209.95C487.305 209.561 486.715 208.971 486.291 208.181C485.879 207.39 485.673 206.417 485.673 205.26C485.673 204.401 485.816 203.611 486.102 202.89C486.4 202.168 486.841 201.544 487.425 201.017C488.009 200.479 488.742 200.061 489.624 199.763C490.506 199.465 491.531 199.317 492.699 199.317H496.238ZM504.896 195.555V210.173H502.989V191.586H504.81L504.896 195.555ZM504.466 199.729L503.624 199.231C503.67 198.131 503.848 197.101 504.157 196.139C504.478 195.177 504.913 194.329 505.462 193.596C506.012 192.852 506.659 192.273 507.404 191.861C508.148 191.449 508.973 191.243 509.877 191.243C510.645 191.243 511.337 191.369 511.956 191.621C512.574 191.873 513.095 192.268 513.519 192.806C513.954 193.344 514.286 194.049 514.515 194.919C514.744 195.789 514.859 196.837 514.859 198.063V210.173H512.952V198.045C512.952 196.774 512.809 195.778 512.523 195.056C512.236 194.335 511.824 193.825 511.286 193.528C510.759 193.218 510.124 193.064 509.379 193.064C508.589 193.064 507.89 193.276 507.283 193.699C506.688 194.123 506.178 194.673 505.754 195.348C505.342 196.024 505.027 196.751 504.81 197.53C504.592 198.297 504.478 199.03 504.466 199.729ZM530.062 206.566V183.787H531.969V210.173H530.182L530.062 206.566ZM519.274 201.756V200.021C519.274 198.463 519.411 197.129 519.686 196.018C519.972 194.896 520.379 193.986 520.906 193.287C521.433 192.588 522.068 192.073 522.813 191.741C523.568 191.409 524.41 191.243 525.338 191.243C526.243 191.243 527.033 191.415 527.708 191.758C528.396 192.09 528.98 192.566 529.461 193.184C529.942 193.802 530.331 194.541 530.629 195.4C530.927 196.247 531.144 197.198 531.282 198.252V203.8C531.167 204.785 530.961 205.69 530.663 206.514C530.377 207.339 529.987 208.049 529.495 208.644C529.014 209.24 528.424 209.704 527.726 210.036C527.027 210.368 526.214 210.534 525.286 210.534C524.37 210.534 523.54 210.357 522.795 210.002C522.062 209.647 521.433 209.108 520.906 208.387C520.379 207.665 519.972 206.755 519.686 205.655C519.411 204.556 519.274 203.256 519.274 201.756ZM521.198 200.021V201.756C521.198 202.947 521.284 203.978 521.456 204.848C521.639 205.718 521.914 206.44 522.28 207.013C522.658 207.574 523.128 207.997 523.689 208.284C524.25 208.559 524.914 208.696 525.681 208.696C526.655 208.696 527.468 208.496 528.121 208.095C528.774 207.682 529.295 207.144 529.684 206.48C530.085 205.804 530.377 205.066 530.56 204.264V197.908C530.446 197.358 530.274 196.803 530.045 196.242C529.827 195.669 529.535 195.142 529.169 194.661C528.802 194.18 528.333 193.797 527.76 193.51C527.199 193.213 526.517 193.064 525.716 193.064C524.937 193.064 524.261 193.207 523.689 193.493C523.116 193.768 522.647 194.192 522.28 194.764C521.914 195.337 521.639 196.058 521.456 196.929C521.284 197.788 521.198 198.818 521.198 200.021Z" fill="white"/>
</svg>
