<svg width="12" height="13" viewBox="0 0 12 13" fill="none" xmlns="http://www.w3.org/2000/svg">
<path d="M10.3594 0H7.70312C7.49178 0 7.28909 0.0839561 7.13965 0.233399C6.99021 0.382842 6.90625 0.585531 6.90625 0.796875V11.4219C6.90625 11.6332 6.99021 11.8359 7.13965 11.9854C7.28909 12.1348 7.49178 12.2188 7.70312 12.2188H10.3594C10.5707 12.2188 10.7734 12.1348 10.9229 11.9854C11.0723 11.8359 11.1562 11.6332 11.1562 11.4219V0.796875C11.1562 0.585531 11.0723 0.382842 10.9229 0.233399C10.7734 0.0839561 10.5707 0 10.3594 0ZM10.625 11.4219C10.625 11.4923 10.597 11.5599 10.5472 11.6097C10.4974 11.6595 10.4298 11.6875 10.3594 11.6875H7.70312C7.63268 11.6875 7.56511 11.6595 7.5153 11.6097C7.46548 11.5599 7.4375 11.4923 7.4375 11.4219V0.796875C7.4375 0.726427 7.46548 0.658864 7.5153 0.60905C7.56511 0.559235 7.63268 0.53125 7.70312 0.53125H10.3594C10.4298 0.53125 10.4974 0.559235 10.5472 0.60905C10.597 0.658864 10.625 0.726427 10.625 0.796875V11.4219ZM3.45312 0H0.796875C0.585531 0 0.382842 0.0839561 0.233399 0.233399C0.0839561 0.382842 0 0.585531 0 0.796875V11.4219C0 11.6332 0.0839561 11.8359 0.233399 11.9854C0.382842 12.1348 0.585531 12.2188 0.796875 12.2188H3.45312C3.66447 12.2188 3.86716 12.1348 4.0166 11.9854C4.16604 11.8359 4.25 11.6332 4.25 11.4219V0.796875C4.25 0.585531 4.16604 0.382842 4.0166 0.233399C3.86716 0.0839561 3.66447 0 3.45312 0ZM3.71875 11.4219C3.71875 11.4923 3.69076 11.5599 3.64095 11.6097C3.59114 11.6595 3.52357 11.6875 3.45312 11.6875H0.796875C0.726427 11.6875 0.658864 11.6595 0.60905 11.6097C0.559235 11.5599 0.53125 11.4923 0.53125 11.4219V0.796875C0.53125 0.726427 0.559235 0.658864 0.60905 0.60905C0.658864 0.559235 0.726427 0.53125 0.796875 0.53125H3.45312C3.52357 0.53125 3.59114 0.559235 3.64095 0.60905C3.69076 0.658864 3.71875 0.726427 3.71875 0.796875V11.4219Z" fill="#D6D9DD"/>
</svg>
