<svg width="61" height="61" viewBox="0 0 61 61" fill="none" xmlns="http://www.w3.org/2000/svg">
<rect x="0.931641" y="0.5" width="60" height="60" rx="30" fill="#14A800" fill-opacity="0.12"/>
<path d="M19.132 15.9017C18.0203 16.2232 17.0224 17.0269 16.5067 18.0181C15.991 19.0159 16.0178 18.594 16.0178 25.9542C16.0178 33.3144 15.991 32.8924 16.5067 33.8903C17.0358 34.915 18.1274 35.7722 19.2392 36.0334C19.8888 36.1808 42.1501 36.1808 42.7998 36.0334C43.9115 35.7722 45.0031 34.915 45.5322 33.8903C46.0479 32.8924 46.0211 33.3144 46.0211 25.9542C46.0211 18.594 46.0479 19.0159 45.5322 18.0181C45.1572 17.2948 44.5008 16.6384 43.7776 16.2634C42.7529 15.7343 43.7709 15.7745 30.9793 15.7812C20.3375 15.7812 19.507 15.7946 19.132 15.9017ZM24.3893 22.4047C24.4696 22.4851 24.5232 22.6257 24.5232 22.7529C24.5232 22.9405 24.3558 23.1347 23.0364 24.4607L21.5497 25.9542L23.0364 27.4477C24.3558 28.7737 24.5232 28.9679 24.5232 29.1554C24.5232 29.4367 24.3223 29.6376 24.041 29.6376C23.8468 29.6376 23.6392 29.4568 22.0988 27.9098C20.5049 26.3225 20.371 26.1685 20.371 25.9542C20.371 25.7399 20.5049 25.5858 22.0988 23.9986C23.6392 22.4516 23.8468 22.2708 24.041 22.2708C24.1683 22.2708 24.3089 22.3243 24.3893 22.4047ZM39.9401 23.9986C41.534 25.5858 41.6679 25.7399 41.6679 25.9542C41.6679 26.1685 41.534 26.3225 39.9401 27.9098C38.3997 29.4568 38.1921 29.6376 37.9979 29.6376C37.7166 29.6376 37.5157 29.4367 37.5157 29.1554C37.5157 28.9679 37.6831 28.7737 39.0025 27.4477L40.4892 25.9542L39.0025 24.4607C37.6831 23.1347 37.5157 22.9405 37.5157 22.7529C37.5157 22.4717 37.7166 22.2708 37.9979 22.2708C38.1921 22.2708 38.3997 22.4516 39.9401 23.9986ZM27.5369 23.4093C27.7312 23.5164 27.8048 23.8513 27.8048 24.6549V25.4184H28.575C29.4657 25.4184 29.7805 25.5122 29.8542 25.7801C29.9881 26.3225 29.6867 26.49 28.575 26.49H27.8048V27.2601C27.8048 28.1509 27.7111 28.4656 27.4432 28.5393C26.9007 28.6732 26.7333 28.3719 26.7333 27.2601V26.49H25.9631C24.8514 26.49 24.55 26.3225 24.6839 25.7801C24.7576 25.5122 25.0724 25.4184 25.9631 25.4184H26.7333V24.6549C26.7333 23.8647 26.7935 23.57 26.9811 23.4227C27.115 23.3289 27.3628 23.3155 27.5369 23.4093ZM35.0378 23.4093C35.232 23.5164 35.3056 23.8513 35.3056 24.6549V25.4184H36.0758C36.9665 25.4184 37.2813 25.5122 37.355 25.7801C37.4889 26.3225 37.1875 26.49 36.0758 26.49H35.3056V27.2601C35.3056 28.3719 35.1382 28.6732 34.5957 28.5393C34.3279 28.4656 34.2341 28.1509 34.2341 27.2601V26.49H33.4639C32.5732 26.49 32.2584 26.3962 32.1848 26.1283C32.0508 25.5858 32.3522 25.4184 33.4639 25.4184H34.2341V24.6549C34.2341 23.8647 34.2944 23.57 34.4819 23.4227C34.6158 23.3289 34.8636 23.3155 35.0378 23.4093Z" fill="#14A800"/>
<path d="M28.877 39.5291C28.877 41.7392 28.8837 41.8731 29.0109 42.0807C29.2855 42.5294 29.4127 42.5629 31.02 42.5629C32.6274 42.5629 32.7546 42.5294 33.0292 42.0807C33.1564 41.8731 33.1631 41.7392 33.1631 39.5291V37.2052H31.02H28.877V39.5291Z" fill="#14A800"/>
<path d="M25.6222 40.4938C25.1133 40.6412 24.7918 40.9626 23.968 42.1279C22.3741 44.3916 22.4478 44.2643 22.4478 44.693C22.4478 45.1417 22.6018 45.443 22.93 45.6439C23.1443 45.7779 23.2849 45.7779 31.0202 45.7779C38.7554 45.7779 38.896 45.7779 39.1103 45.6439C39.4385 45.443 39.5925 45.1417 39.5925 44.693C39.5925 44.2643 39.6662 44.3916 38.0723 42.1279C36.9338 40.5139 36.7797 40.4202 35.1992 40.4202H34.2549L34.2147 41.1368C34.1946 41.5386 34.141 41.9739 34.1009 42.1078C33.9334 42.6972 33.2905 43.3267 32.6744 43.5143C32.4868 43.5745 31.931 43.6013 31.0202 43.6013C30.1093 43.6013 29.5535 43.5745 29.366 43.5143C28.7498 43.3267 28.1069 42.6972 27.9395 42.1078C27.8993 41.9739 27.8457 41.5386 27.8256 41.1368L27.7854 40.4202L26.8076 40.4269C26.2719 40.4269 25.7361 40.4603 25.6222 40.4938Z" fill="#14A800"/>
</svg>
