<svg width="60" height="61" viewBox="0 0 60 61" fill="none" xmlns="http://www.w3.org/2000/svg">
<rect y="0.5" width="60" height="60" rx="30" fill="#14A800" fill-opacity="0.1"/>
<path d="M29.8275 16.5766C29.781 16.6031 29.4357 17.2539 29.0505 18.0309C28.6056 18.9074 28.3001 19.4453 28.2271 19.4719C28.1075 19.5051 25.4115 19.9102 25.2919 19.9102C25.2587 19.9102 25.179 19.9566 25.1259 20.0164C24.8935 20.2488 24.9865 20.3883 26.1486 21.5305C26.7728 22.1348 27.2775 22.6727 27.2775 22.7191C27.2775 22.759 27.1712 23.4031 27.045 24.1402C26.7927 25.6078 26.7728 25.8203 26.8923 25.9398C27.0517 26.0992 27.3173 26.0062 28.6454 25.3156L30.0001 24.6184L31.3548 25.3156C32.6896 26.0062 32.9486 26.0992 33.1079 25.9398C33.2275 25.8203 33.2075 25.641 32.9552 24.1535C32.829 23.4098 32.7228 22.759 32.7228 22.7125C32.7228 22.6727 33.2341 22.1348 33.8517 21.5305C35.0138 20.3883 35.1068 20.2488 34.8743 20.0164C34.8212 19.9566 34.7482 19.9102 34.715 19.9102C34.6286 19.9102 31.9724 19.5117 31.8064 19.4785C31.6868 19.4519 31.5142 19.1531 30.9564 18.0309C30.5712 17.2605 30.2193 16.6031 30.1794 16.5766C30.0798 16.5102 29.9204 16.5102 29.8275 16.5766Z" fill="#14A800"/>
<path d="M20.1918 19.1929C20.152 19.2394 19.8199 19.8836 19.448 20.6207C19.0828 21.3578 18.7574 21.9754 18.7242 21.9953C18.6977 22.0086 18.0004 22.1215 17.1836 22.241C15.6496 22.4601 15.457 22.5265 15.457 22.7922C15.457 22.8851 15.8488 23.3234 16.5992 24.0738L17.7348 25.216L17.4891 26.6703C17.3496 27.4672 17.25 28.2109 17.2633 28.3172C17.2766 28.45 17.3363 28.523 17.4559 28.5695C17.602 28.616 17.8211 28.523 19.0363 27.8855L20.4375 27.1418L21.8453 27.8855C23.0473 28.5164 23.2797 28.616 23.4191 28.5695C23.5387 28.523 23.5984 28.45 23.6117 28.3172C23.625 28.2109 23.5254 27.4672 23.3859 26.6703L23.1402 25.2093L24.2824 24.0672C25.4711 22.8785 25.5641 22.7324 25.2719 22.5398C25.1855 22.4867 24.4617 22.3539 23.6582 22.2343C22.8547 22.1215 22.1707 21.9953 22.1309 21.9621C22.0977 21.9222 21.7523 21.2781 21.3672 20.5211C20.7031 19.2129 20.6633 19.1465 20.4641 19.1265C20.3512 19.1132 20.2316 19.1465 20.1918 19.1929Z" fill="#14A800"/>
<path d="M39.3168 19.1929C39.277 19.2394 38.9449 19.8836 38.573 20.6207C38.2078 21.3578 37.8824 21.9754 37.8559 21.9886C37.8227 22.0086 37.132 22.1215 36.3086 22.241C34.7746 22.4601 34.582 22.5265 34.582 22.7922C34.582 22.8851 34.9738 23.3234 35.7242 24.0738L36.8598 25.216L36.6141 26.6703C36.4746 27.4672 36.375 28.2109 36.3883 28.3172C36.4016 28.45 36.4613 28.523 36.5809 28.5695C36.727 28.616 36.9461 28.523 38.1613 27.8855L39.5625 27.1418L40.9703 27.8855C42.1723 28.5164 42.4047 28.616 42.5441 28.5695C42.6637 28.523 42.7234 28.45 42.7367 28.3172C42.75 28.2109 42.6504 27.4672 42.5109 26.6703L42.2652 25.2093L43.4074 24.0672C44.5961 22.8785 44.6891 22.7324 44.3969 22.5398C44.3105 22.4867 43.5867 22.3539 42.7832 22.2343C41.9797 22.1215 41.2957 21.9953 41.2559 21.9621C41.2227 21.9222 40.8773 21.2781 40.4922 20.5211C39.8281 19.2129 39.7883 19.1465 39.5891 19.1265C39.4762 19.1132 39.3566 19.1465 39.3168 19.1929Z" fill="#14A800"/>
<path d="M29.3691 27.9055C29.0305 28.0582 28.891 28.2773 28.5988 29.1074C27.7289 31.6043 26.3875 33.5434 24.5879 34.9047L24.1363 35.25H23.6184H23.0938V39.5V43.75H23.8641H24.6344L25.1723 44.2547C25.823 44.8656 26.3676 45.2441 26.9652 45.4965C27.8219 45.8551 28.0941 45.875 31.9125 45.875H35.4121L35.8105 45.6891C36.2555 45.4766 36.6605 45.0715 36.8398 44.6531C37.0324 44.2215 38.5 37.3086 38.5 36.8437C38.5 36.1863 38.1879 35.6949 37.5902 35.3895C37.318 35.2566 37.2316 35.25 34.3828 35.25C32.7758 35.25 31.4609 35.2367 31.4609 35.2168C31.4609 35.1969 31.5473 35.0109 31.6535 34.7984C31.9324 34.234 32.2844 33.2645 32.5898 32.1887C32.8422 31.3121 32.8621 31.1793 32.8422 30.6016C32.8223 30.057 32.7891 29.9043 32.6098 29.5191C32.3574 28.9945 31.8594 28.4367 31.4078 28.191C30.7703 27.8457 29.8074 27.7129 29.3691 27.9055Z" fill="#14A800"/>
<path d="M17.3828 34.3203C17.25 34.4531 17.25 34.5395 17.25 39.5C17.25 44.4605 17.25 44.5469 17.3828 44.6797C17.509 44.8059 17.602 44.8125 19.375 44.8125C21.148 44.8125 21.241 44.8059 21.3672 44.6797C21.5 44.5469 21.5 44.4605 21.5 39.5C21.5 34.5395 21.5 34.4531 21.3672 34.3203C21.241 34.1941 21.148 34.1875 19.375 34.1875C17.602 34.1875 17.509 34.1941 17.3828 34.3203Z" fill="#14A800"/>
</svg>
