<svg width="61" height="61" viewBox="0 0 61 61" fill="none" xmlns="http://www.w3.org/2000/svg">
<rect x="0.931641" y="0.5" width="60" height="60" rx="30" fill="#14A800" fill-opacity="0.1"/>
<g clip-path="url(#clip0_512_525)">
<path d="M16.9325 20.832C15.5661 21.1092 14.4511 22.1469 14.0966 23.4746C13.9548 24.0031 13.9548 36.9969 14.0966 37.5254C14.4124 38.7178 15.3147 39.6523 16.578 40.0777C16.9196 40.1938 17.287 40.2002 25.1181 40.2002H33.3036L33.7548 40.0584C34.8247 39.7232 35.7013 38.866 36.1267 37.7445L36.2685 37.3643L36.2878 30.6805C36.3071 23.2297 36.32 23.5455 35.8688 22.6818C35.5466 22.0695 34.9536 21.483 34.3478 21.1865C33.4647 20.7547 33.8321 20.7676 25.0858 20.774C20.7417 20.7805 17.0743 20.8062 16.9325 20.832Z" fill="#14A800"/>
<path d="M44.2994 22.7721C44.1318 22.8043 43.5582 23.0944 42.9137 23.4617C42.3078 23.8098 40.9607 24.5832 39.923 25.1826L38.041 26.2719L38.0539 30.4936L38.0732 34.7088L40.9736 36.3782C42.6043 37.3127 44.0287 38.0862 44.2221 38.1442C45.2275 38.4471 46.2975 37.9701 46.8195 36.9969L46.9678 36.7198L46.9871 30.5838C47 24.5897 47 24.4479 46.8711 24.1063C46.4908 23.0879 45.4467 22.5465 44.2994 22.7721Z" fill="#14A800"/>
</g>
<defs>
<clipPath id="clip0_512_525">
<rect width="33" height="33" fill="white" transform="translate(14 14)"/>
</clipPath>
</defs>
</svg>
