<svg width="86" height="42" viewBox="0 0 86 42" fill="none" xmlns="http://www.w3.org/2000/svg">
<g id="Group 48095604">
<g id="HIRE CODER">
<path d="M16.5563 19.8856V0.929688H19.2565V8.82798H30.4176V0.929688H33.1179V19.8856H30.4176V11.9873H19.2565V19.8856H16.5563Z" fill="#14A800"/>
<path d="M34.2325 19.8856V0.929688H36.9103V19.8856H34.2325Z" fill="#14A800"/>
<path d="M21.4873 41.5002C20.9323 41.5002 20.4222 41.3422 19.9572 41.0263C19.4921 40.7104 19.1246 40.2803 18.8546 39.7362C18.5846 39.1921 18.4495 38.5954 18.4495 37.946V26.0985C18.4495 25.4491 18.5846 24.8523 18.8546 24.3082C19.1246 23.7641 19.4921 23.3341 19.9572 23.0182C20.4222 22.7023 20.9323 22.5443 21.4873 22.5443H31.6133C32.1684 22.5443 32.6709 22.7023 33.121 23.0182C33.586 23.3341 33.9535 23.7641 34.2236 24.3082C34.5086 24.8523 34.6511 25.4491 34.6511 26.0985V37.946C34.6511 38.5954 34.5086 39.1921 34.2236 39.7362C33.9535 40.2803 33.586 40.7104 33.121 41.0263C32.6709 41.3422 32.1684 41.5002 31.6133 41.5002H21.4873ZM21.5548 38.3145H31.5233C31.6283 38.3145 31.7183 38.2707 31.7933 38.1829C31.8833 38.0951 31.9283 37.9811 31.9283 37.8406V26.2038C31.9283 26.0634 31.8833 25.9493 31.7933 25.8616C31.7183 25.7738 31.6283 25.7299 31.5233 25.7299H21.5548C21.4498 25.7299 21.3523 25.7738 21.2623 25.8616C21.1873 25.9493 21.1498 26.0634 21.1498 26.2038V37.8406C21.1498 37.9811 21.1873 38.0951 21.2623 38.1829C21.3523 38.2707 21.4498 38.3145 21.5548 38.3145Z" fill="#14A800"/>
<path d="M35.7372 41.5002V22.5443H48.9009C49.456 22.5443 49.9585 22.7023 50.4086 23.0182C50.8736 23.3341 51.2412 23.7641 51.5112 24.3082C51.7962 24.8523 51.9387 25.4491 51.9387 26.0985V37.946C51.9387 38.5954 51.7962 39.1921 51.5112 39.7362C51.2412 40.2803 50.8736 40.7104 50.4086 41.0263C49.9585 41.3422 49.456 41.5002 48.9009 41.5002H35.7372ZM38.8425 38.3145H48.8109C48.9159 38.3145 49.006 38.2707 49.081 38.1829C49.171 38.0951 49.216 37.9811 49.216 37.8406V26.2038C49.216 26.0634 49.171 25.9493 49.081 25.8616C49.006 25.7738 48.9159 25.7299 48.8109 25.7299H38.8425C38.7225 25.7299 38.6175 25.7738 38.5274 25.8616C38.4524 25.9493 38.4149 26.0634 38.4149 26.2038V37.8406C38.4149 37.9811 38.4524 38.0951 38.5274 38.1829C38.6175 38.2707 38.7225 38.3145 38.8425 38.3145Z" fill="#14A800"/>
<path fill-rule="evenodd" clip-rule="evenodd" d="M53.1706 41.4739V38.2882H55.8933H68.0445V41.4739H53.1706ZM55.8933 33.5756H68.0445V30.4163H55.8933H53.1706V30.4936V33.5756H55.8933ZM68.0445 25.7036H55.8933H53.1706V22.518H68.0445V25.7036Z" fill="#14A800"/>
<path fill-rule="evenodd" clip-rule="evenodd" d="M56.7534 19.8856V16.6999H59.4761H71.6273V19.8856H56.7534ZM71.6273 11.9873H59.4761H56.7534V8.82798H59.4761H71.6273V11.9873ZM59.4761 4.11533H71.6273V0.929688H56.7534V4.11533H59.4761Z" fill="#14A800"/>
<path fill-rule="evenodd" clip-rule="evenodd" d="M77.2255 34.8777L81.9638 41.5002H85.0016V40.763L80.7537 34.8688L82.0313 34.8656C82.5863 34.8656 83.0889 34.7077 83.5389 34.3917C84.004 34.0758 84.3715 33.6458 84.6415 33.1017C84.9266 32.5576 85.0691 31.9696 85.0691 31.3377V26.1249C85.0691 25.4754 84.9266 24.8874 84.6415 24.3609C84.3715 23.8168 84.004 23.3868 83.5389 23.0708C83.0889 22.7374 82.5863 22.5706 82.0313 22.5706H68.8675V25.7299H71.9728H81.9413C82.0463 25.7299 82.1363 25.7826 82.2113 25.8879C82.3013 25.9757 82.3463 26.081 82.3463 26.2038V31.2061C82.3463 31.3465 82.3013 31.4606 82.2113 31.5483C82.1363 31.6361 82.0463 31.68 81.9413 31.68H71.9728H68.8675V41.5002H71.5678V34.892L77.2255 34.8777Z" fill="#14A800"/>
<path fill-rule="evenodd" clip-rule="evenodd" d="M46.5737 13.2633L51.312 19.8857H54.3498V19.1486L50.1018 13.2544L51.3795 13.2512C51.9345 13.2512 52.4371 13.0932 52.8871 12.7773C53.3522 12.4613 53.7197 12.0313 53.9897 11.4872C54.2748 10.9431 54.4173 10.3551 54.4173 9.72327V4.5104C54.4173 3.86098 54.2748 3.273 53.9897 2.74645C53.7197 2.20234 53.3522 1.77233 52.8871 1.45639C52.4371 1.12291 51.9345 0.956168 51.3795 0.956168H38.2157V4.11548H41.321H51.2895C51.3945 4.11548 51.4845 4.16814 51.5595 4.27345C51.6495 4.36121 51.6945 4.46652 51.6945 4.58938V9.59163C51.6945 9.73205 51.6495 9.84613 51.5595 9.93389C51.4845 10.0217 51.3945 10.0655 51.2895 10.0655H41.321H38.2157V19.8857H40.916V13.2775L46.5737 13.2633Z" fill="#14A800"/>
</g>
<g id="HIRE CODER_2">
<path d="M3.95258 41.62C3.39753 41.62 2.88749 41.462 2.42244 41.1461C1.9574 40.8301 1.58986 40.4001 1.31983 39.856C1.04981 39.3119 0.914795 38.7151 0.914795 38.0657V26.2183C0.914795 25.5689 1.04981 24.9721 1.31983 24.428C1.58986 23.8839 1.9574 23.4539 2.42244 23.138C2.88749 22.822 3.39753 22.6641 3.95258 22.6641H17.0714V25.8497H4.42513C4.18511 25.8497 3.99009 25.9375 3.84007 26.113C3.69006 26.2709 3.61505 26.4903 3.61505 26.7712V37.5128C3.61505 37.7937 3.69006 38.0219 3.84007 38.1974C3.99009 38.3553 4.18511 38.4343 4.42513 38.4343H17.0714V41.62H3.95258Z" fill="black"/>
<path d="M3.95258 41.62C3.39753 41.62 2.88749 41.462 2.42244 41.1461C1.9574 40.8301 1.58986 40.4001 1.31983 39.856C1.04981 39.3119 0.914795 38.7151 0.914795 38.0657V26.2183C0.914795 25.5689 1.04981 24.9721 1.31983 24.428C1.58986 23.8839 1.9574 23.4539 2.42244 23.138C2.88749 22.822 3.39753 22.6641 3.95258 22.6641H17.0714V25.8497H4.42513C4.18511 25.8497 3.99009 25.9375 3.84007 26.113C3.69006 26.2709 3.61505 26.4903 3.61505 26.7712V37.5128C3.61505 37.7937 3.69006 38.0219 3.84007 38.1974C3.99009 38.3553 4.18511 38.4343 4.42513 38.4343H17.0714V41.62H3.95258Z" fill="black" fill-opacity="0.2"/>
<path d="M3.95258 41.62C3.39753 41.62 2.88749 41.462 2.42244 41.1461C1.9574 40.8301 1.58986 40.4001 1.31983 39.856C1.04981 39.3119 0.914795 38.7151 0.914795 38.0657V26.2183C0.914795 25.5689 1.04981 24.9721 1.31983 24.428C1.58986 23.8839 1.9574 23.4539 2.42244 23.138C2.88749 22.822 3.39753 22.6641 3.95258 22.6641H17.0714V25.8497H4.42513C4.18511 25.8497 3.99009 25.9375 3.84007 26.113C3.69006 26.2709 3.61505 26.4903 3.61505 26.7712V37.5128C3.61505 37.7937 3.69006 38.0219 3.84007 38.1974C3.99009 38.3553 4.18511 38.4343 4.42513 38.4343H17.0714V41.62H3.95258Z" fill="black"/>
<path d="M3.95258 41.62C3.39753 41.62 2.88749 41.462 2.42244 41.1461C1.9574 40.8301 1.58986 40.4001 1.31983 39.856C1.04981 39.3119 0.914795 38.7151 0.914795 38.0657V26.2183C0.914795 25.5689 1.04981 24.9721 1.31983 24.428C1.58986 23.8839 1.9574 23.4539 2.42244 23.138C2.88749 22.822 3.39753 22.6641 3.95258 22.6641H17.0714V25.8497H4.42513C4.18511 25.8497 3.99009 25.9375 3.84007 26.113C3.69006 26.2709 3.61505 26.4903 3.61505 26.7712V37.5128C3.61505 37.7937 3.69006 38.0219 3.84007 38.1974C3.99009 38.3553 4.18511 38.4343 4.42513 38.4343H17.0714V41.62H3.95258Z" fill="black" fill-opacity="0.2"/>
</g>
</g>
</svg>
